<svg width="76" height="70" viewBox="0 0 76 70" fill="none" xmlns="http://www.w3.org/2000/svg">
<g clip-path="url(#clip0_749_11291)">
<path d="M66.5006 9.125C67.3405 9.125 68.146 9.4279 68.7398 9.96707C69.3337 10.5062 69.6673 11.2375 69.6673 12V58C69.6673 58.7625 69.3337 59.4938 68.7398 60.0329C68.146 60.5721 67.3405 60.875 66.5006 60.875H9.50065C8.6608 60.875 7.85534 60.5721 7.26148 60.0329C6.66761 59.4938 6.33398 58.7625 6.33398 58V12C6.33398 11.2375 6.66761 10.5062 7.26148 9.96707C7.85534 9.4279 8.6608 9.125 9.50065 9.125H66.5006ZM29.7642 23.5H23.4308L13.2975 46.5H20.1185L21.3851 43.625H31.8035L33.0701 46.5H39.8943L29.7642 23.5ZM60.1673 23.5H53.834V29.25H50.6673C48.1945 29.2478 45.8181 30.1212 44.0432 31.6845C42.2683 33.2478 41.2348 35.3778 41.1623 37.6219C41.0897 39.866 41.9838 42.0474 43.6546 43.7025C45.3254 45.3577 47.6412 46.3561 50.11 46.4856L50.6673 46.5H60.1673V23.5ZM53.834 35V40.75H50.6673L50.2968 40.7299C49.5272 40.6468 48.8178 40.3103 48.3031 39.7841C47.7884 39.2579 47.5042 38.5787 47.5042 37.875C47.5042 37.1713 47.7884 36.4921 48.3031 35.9659C48.8178 35.4397 49.5272 35.1032 50.2968 35.0201L50.6673 35H53.834ZM26.5975 31.7944L29.2733 37.875H23.9153L26.5975 31.7944Z" fill="#4F94C9"/>
</g>
<defs>
<clipPath id="clip0_749_11291">
<rect width="76" height="69" fill="white" transform="translate(0 0.5)"/>
</clipPath>
</defs>
</svg>
