<svg width="76" height="76" viewBox="0 0 76 76" fill="none" xmlns="http://www.w3.org/2000/svg">
<g clip-path="url(#clip0_749_10900)">
<path d="M38 76C58.9868 76 76 58.9868 76 38C76 17.0132 58.9868 0 38 0C17.0132 0 0 17.0132 0 38C0 58.9868 17.0132 76 38 76Z" fill="#0A8A93"/>
<path d="M31.8954 34.9966L28.6383 38.2538C27.4218 39.4702 26.7223 41.1254 26.7351 42.8649C26.7478 44.6044 27.4321 46.2697 28.7062 47.5045C29.941 48.7787 31.6066 49.4629 33.3458 49.4757C35.1247 49.4887 36.7407 48.8286 37.9572 47.6121L41.2144 44.355M45.3747 40.2742L48.6318 37.0171C49.8483 35.8007 50.5478 34.1455 50.535 32.406C50.5223 30.6665 49.838 29.0012 48.5639 27.7664C47.3294 26.5319 45.6641 25.8477 43.9246 25.8349C42.185 25.8221 40.5297 26.4819 39.3131 27.6984L36.056 30.9555M33.6958 42.4876L43.4672 32.7162M28.7821 27.6087L27.1687 25.9953M34.3843 24.7667L34.6482 22.1074M23.511 33.2441L26.2682 32.9705M48.6222 46.9879L50.2355 48.6012M43.02 49.8298L42.756 52.4891M53.8932 41.3524L51.136 41.6261" stroke="white" stroke-width="2" stroke-linecap="round" stroke-linejoin="round"/>
</g>
<defs>
<clipPath id="clip0_749_10900">
<rect width="76" height="76" fill="white"/>
</clipPath>
</defs>
</svg>
