<svg width="35" height="35" viewBox="0 0 35 35" fill="none" xmlns="http://www.w3.org/2000/svg">
<g clip-path="url(#clip0_749_10905)">
<path d="M17.5 35C27.165 35 35 27.165 35 17.5C35 7.83502 27.165 0 17.5 0C7.83502 0 0 7.83502 0 17.5C0 27.165 7.83502 35 17.5 35Z" fill="#A1B4BF"/>
<path d="M14.2259 15.5694L12.3647 17.4306C11.6696 18.1257 11.2699 19.0715 11.2772 20.0655C11.2845 21.0595 11.6755 22.0111 12.4036 22.7167C13.1091 23.4448 14.0609 23.8358 15.0548 23.8431C16.0713 23.8506 16.9947 23.4734 17.6899 22.7782L19.5511 20.917M21.9284 18.5851L23.7896 16.7239C24.4847 16.0288 24.8845 15.083 24.8772 14.089C24.8699 13.095 24.4789 12.1434 23.7508 11.4378C23.0454 10.7324 22.0938 10.3414 21.0998 10.3341C20.1057 10.3268 19.1598 10.7038 18.4647 11.399L16.6035 13.2602M15.2548 19.8499L20.8384 14.2663M12.4469 11.3477L11.525 10.4257M15.6482 9.72371L15.799 8.2041M9.43488 14.5679L11.0104 14.4115M23.7841 22.4215L24.706 23.3434M20.5828 24.0455L20.432 25.5651M26.7961 19.2012L25.2206 19.3576" stroke="white" stroke-width="2" stroke-linecap="round" stroke-linejoin="round"/>
</g>
<defs>
<clipPath id="clip0_749_10905">
<rect width="35" height="35" fill="white"/>
</clipPath>
</defs>
</svg>
