<svg width="43" height="40" viewBox="0 0 43 40" fill="none" xmlns="http://www.w3.org/2000/svg">
<rect x="8" y="5" width="35" height="35" rx="17.5" fill="#EBF9F6"/>
<path d="M17.5 33.1769C8.8521 33.1769 1.82294 26.1478 1.82294 17.4998C1.82294 8.85192 8.8521 1.82275 17.5 1.82275C26.1479 1.82275 33.1771 8.85192 33.1771 17.4998C33.1771 26.1478 26.1479 33.1769 17.5 33.1769ZM17.5 4.01025C10.0625 4.01025 4.01044 10.0623 4.01044 17.4998C4.01044 24.9373 10.0625 30.9894 17.5 30.9894C24.9375 30.9894 30.9896 24.9373 30.9896 17.4998C30.9896 10.0623 24.9375 4.01025 17.5 4.01025Z" fill="#292D32"/>
<path d="M15.4292 22.7207C15.1375 22.7207 14.8604 22.604 14.6562 22.3998L10.5292 18.2728C10.1062 17.8498 10.1062 17.1498 10.5292 16.7269C10.9521 16.304 11.6521 16.304 12.075 16.7269L15.4292 20.0811L22.925 12.5853C23.3479 12.1623 24.0479 12.1623 24.4708 12.5853C24.8937 13.0082 24.8937 13.7082 24.4708 14.1311L16.2021 22.3998C15.9979 22.604 15.7208 22.7207 15.4292 22.7207Z" fill="#292D32"/>
</svg>
