<svg width="56" height="53" viewBox="0 0 56 53" fill="none" xmlns="http://www.w3.org/2000/svg">
<rect x="8" y="5" width="48" height="48" rx="24" fill="url(#paint0_linear_179_1598)"/>
<path d="M19.9999 37.9166C10.1166 37.9166 2.08325 29.8833 2.08325 19.9999C2.08325 10.1166 10.1166 2.08325 19.9999 2.08325C29.8833 2.08325 37.9166 10.1166 37.9166 19.9999C37.9166 29.8833 29.8833 37.9166 19.9999 37.9166ZM19.9999 4.58325C11.4999 4.58325 4.58325 11.4999 4.58325 19.9999C4.58325 28.4999 11.4999 35.4166 19.9999 35.4166C28.4999 35.4166 35.4166 28.4999 35.4166 19.9999C35.4166 11.4999 28.4999 4.58325 19.9999 4.58325Z" fill="#292D32"/>
<path d="M17.6334 25.9666C17.3001 25.9666 16.9834 25.8333 16.7501 25.5999L12.0334 20.8833C11.5501 20.3999 11.5501 19.5999 12.0334 19.1166C12.5167 18.6333 13.3167 18.6333 13.8001 19.1166L17.6334 22.9499L26.2001 14.3833C26.6834 13.8999 27.4834 13.8999 27.9667 14.3833C28.4501 14.8666 28.4501 15.6666 27.9667 16.1499L18.5167 25.5999C18.2834 25.8333 17.9667 25.9666 17.6334 25.9666Z" fill="#292D32"/>
<defs>
<linearGradient id="paint0_linear_179_1598" x1="8.00272" y1="29.0011" x2="56" y2="29.0011" gradientUnits="userSpaceOnUse">
<stop stop-color="#BFFD2B"/>
<stop offset="0.07" stop-color="#B9FC30"/>
<stop offset="0.16" stop-color="#AAF83D"/>
<stop offset="0.26" stop-color="#90F253"/>
<stop offset="0.37" stop-color="#6BEA72"/>
<stop offset="0.43" stop-color="#62E77A"/>
<stop offset="0.4301" stop-color="#5EE57E"/>
<stop offset="0.53" stop-color="#4ADE91"/>
<stop offset="0.65" stop-color="#24D0B5"/>
<stop offset="0.7" stop-color="#13CAC5"/>
<stop offset="1" stop-color="#05BCE8"/>
</linearGradient>
</defs>
</svg>
