<svg width="35" height="35" viewBox="0 0 35 35" fill="none" xmlns="http://www.w3.org/2000/svg">
<g clip-path="url(#clip0_748_10822)">
<path d="M17.5 35C27.165 35 35 27.165 35 17.5C35 7.83502 27.165 0 17.5 0C7.83502 0 0 7.83502 0 17.5C0 27.165 7.83502 35 17.5 35Z" fill="#A1B4BF"/>
<path d="M9.99805 13.2832L10.002 23.5832C10.002 24.7614 10.9571 25.7165 12.1353 25.7165H23.8686C25.0468 25.7165 26.002 24.7614 26.002 23.5832V15.0499C26.002 14.068 25.206 13.2721 24.2242 13.2721H10.0137C10.0067 13.2721 10.0004 13.2765 9.99805 13.2832ZM9.99805 13.2832C9.9987 13.0835 22.002 8.2832 22.002 8.2832V12.7832M21.7492 19.3026L21.7353 19.3165" stroke="white" stroke-width="2" stroke-linecap="round" stroke-linejoin="round"/>
</g>
<defs>
<clipPath id="clip0_748_10822">
<rect width="35" height="35" fill="white"/>
</clipPath>
</defs>
</svg>
