<svg width="76" height="76" viewBox="0 0 76 76" fill="none" xmlns="http://www.w3.org/2000/svg">
<g clip-path="url(#clip0_748_10810)">
<path d="M38 76C58.9868 76 76 58.9868 76 38C76 17.0132 58.9868 0 38 0C17.0132 0 0 17.0132 0 38C0 58.9868 17.0132 76 38 76Z" fill="#0A8A93"/>
<path d="M24.4966 30.9961L24.5034 49.0211C24.5034 51.083 26.1749 52.7544 28.2368 52.7544H48.7701C50.8319 52.7544 52.5034 51.083 52.5034 49.0211V34.0878C52.5034 32.3695 51.1105 30.9766 49.3923 30.9766H24.524C24.5117 30.9766 24.5007 30.9844 24.4966 30.9961ZM24.4966 30.9961C24.4977 30.6466 45.5034 22.2461 45.5034 22.2461V30.1211M45.0611 41.5301L45.0368 41.5544" stroke="white" stroke-width="2" stroke-linecap="round" stroke-linejoin="round"/>
</g>
<defs>
<clipPath id="clip0_748_10810">
<rect width="76" height="76" fill="white"/>
</clipPath>
</defs>
</svg>
