<svg width="88" height="78" viewBox="0 0 88 78" fill="none" xmlns="http://www.w3.org/2000/svg">
<rect x="27" y="17" width="60" height="60" rx="30" fill="url(#paint0_linear_584_965)" fill-opacity="0.6"/>
<path d="M35.4999 23.3413L32.3345 28.8438C31.6245 30.0567 32.2162 31.0626 33.6066 31.0626H37.3637C38.7837 31.0626 39.3458 32.0684 38.6358 33.2813L35.4999 38.7838" stroke="#292D32" stroke-width="2" stroke-linecap="round" stroke-linejoin="round"/>
<path d="M24.5541 53.3683V49.9366C17.7499 45.8245 12.1587 37.8074 12.1587 29.2874C12.1587 14.6437 25.6191 3.16537 40.8249 6.4787C47.5108 7.95787 53.3683 12.3954 56.4154 18.5191C62.5983 30.9441 56.0899 44.1383 46.5345 49.907V53.3387C46.5345 54.1966 46.8599 56.1787 43.6945 56.1787H27.3941C24.1399 56.2083 24.5541 54.9362 24.5541 53.3683Z" stroke="#292D32" stroke-width="2" stroke-linecap="round" stroke-linejoin="round"/>
<path d="M25.1458 65.0833C31.9203 63.1604 39.0795 63.1604 45.8541 65.0833" stroke="#292D32" stroke-width="2" stroke-linecap="round" stroke-linejoin="round"/>
<defs>
<linearGradient id="paint0_linear_584_965" x1="27.0034" y1="47.0013" x2="87" y2="47.0013" gradientUnits="userSpaceOnUse">
<stop stop-color="#BFFD2B"/>
<stop offset="0.07" stop-color="#B9FC30"/>
<stop offset="0.16" stop-color="#AAF83D"/>
<stop offset="0.26" stop-color="#90F253"/>
<stop offset="0.37" stop-color="#6BEA72"/>
<stop offset="0.43" stop-color="#62E77A"/>
<stop offset="0.53" stop-color="#4ADE91"/>
<stop offset="0.65" stop-color="#24D0B5"/>
<stop offset="0.7" stop-color="#13CAC5"/>
<stop offset="1" stop-color="#05BCE8"/>
</linearGradient>
</defs>
</svg>
