<svg width="74" height="50" viewBox="0 0 74 50" fill="none" xmlns="http://www.w3.org/2000/svg">
<path d="M64.7296 42.4965H9.27315C7.58086 42.4965 6.20898 41.1529 6.20898 39.4954V3.7208C6.20898 2.06335 7.58086 0.719727 9.27315 0.719727H64.7296C66.4219 0.719727 67.7937 2.06335 67.7937 3.7208V39.4954C67.7937 41.1529 66.4218 42.4965 64.7296 42.4965Z" fill="#656766"/>
<path d="M64.536 3.91211H9.46875V39.3049H64.536V3.91211Z" fill="white"/>
<path d="M0.525594 45.7275C0.428406 47.777 2.06452 49.7145 4.40597 49.7145H69.597C71.9385 49.7145 73.5746 47.777 73.4774 45.7275H0.525594Z" fill="#656766"/>
<path d="M44.7626 45.7285H29.2405L31.6391 47.722H42.364L44.7626 45.7285Z" fill="#4E4C4D"/>
<path d="M33.6806 19.3643C36.8599 19.3643 39.4373 16.84 39.4373 13.7261C39.4373 10.6122 36.8599 8.08789 33.6806 8.08789C30.5012 8.08789 27.9238 10.6122 27.9238 13.7261C27.9238 16.84 30.5012 19.3643 33.6806 19.3643Z" fill="#76AE2B"/>
<path d="M43.0972 26.6424C40.8622 23.9795 37.4773 22.2803 33.6815 22.2803C29.8855 22.2803 26.5006 23.9795 24.2656 26.6424C22.7352 28.4659 24.1079 31.2236 26.518 31.2236H40.8447C43.2548 31.2236 44.6276 28.4659 43.0972 26.6424Z" fill="#76AE2B"/>
<path d="M48.0252 36.1547H39.4586C38.6777 36.1547 38.0447 35.5347 38.0447 34.7699V28.9864C38.0447 28.2215 38.6777 27.6016 39.4586 27.6016H48.0252C48.8061 27.6016 49.4391 28.2216 49.4391 28.9864V34.7699C49.4391 35.5347 48.8061 36.1547 48.0252 36.1547Z" fill="#656766"/>
<path d="M40.8737 27.6013V25.2915C40.8737 23.7581 42.1676 22.4909 43.7461 22.4909C45.3247 22.4909 46.6057 23.7581 46.6057 25.2915V27.6013H47.8996V25.2915C47.8996 23.0485 46.0364 21.2236 43.7461 21.2236C41.443 21.2236 39.5798 23.0485 39.5798 25.2915V27.6013H40.8737Z" fill="#656766"/>
<path d="M43.7421 33.4966C44.6547 33.4966 45.3945 32.772 45.3945 31.8782C45.3945 30.9844 44.6547 30.2598 43.7421 30.2598C42.8294 30.2598 42.0896 30.9844 42.0896 31.8782C42.0896 32.772 42.8294 33.4966 43.7421 33.4966Z" fill="#E7E3E6"/>
</svg>
