<svg width="35" height="35" viewBox="0 0 35 35" fill="none" xmlns="http://www.w3.org/2000/svg">
<g clip-path="url(#clip0_750_5489)">
<path d="M17.5 35C27.165 35 35 27.165 35 17.5C35 7.83502 27.165 0 17.5 0C7.83502 0 0 7.83502 0 17.5C0 27.165 7.83502 35 17.5 35Z" fill="#7A94A5"/>
<path d="M17.501 17.6846C16.814 17.6777 16.2534 18.2246 16.2466 18.9116C16.2432 19.2739 16.397 19.6191 16.6704 19.8584V21.0171C16.6704 21.4785 17.043 21.8511 17.5044 21.8511C17.9658 21.8511 18.3384 21.4785 18.3384 21.0171V19.8584C18.8545 19.4072 18.9058 18.6211 18.4546 18.105C18.2085 17.835 17.8633 17.6812 17.501 17.6846ZM21.6675 14.3521V12.6841C21.6675 10.3838 19.8013 8.51758 17.501 8.51758C15.2007 8.51758 13.3345 10.3838 13.3345 12.6841V14.3521C11.9536 14.3521 10.8359 15.4697 10.8359 16.8506V22.6816C10.8359 24.0625 11.9536 25.1802 13.3345 25.1802H21.6675C23.0483 25.1802 24.166 24.0625 24.166 22.6816V16.8506C24.166 15.4697 23.0483 14.3521 21.6675 14.3521ZM15.0024 12.6841C15.0024 11.3032 16.1201 10.1855 17.501 10.1855C18.8818 10.1855 19.9995 11.3032 19.9995 12.6841V14.3521H15.0024V12.6841ZM22.5015 22.6816C22.5015 23.1431 22.1289 23.5156 21.6675 23.5156H13.3345C12.873 23.5156 12.5005 23.1431 12.5005 22.6816V16.8506C12.5005 16.3892 12.873 16.0166 13.3345 16.0166H21.6675C22.1289 16.0166 22.5015 16.3892 22.5015 16.8506V22.6816Z" fill="white"/>
</g>
<defs>
<clipPath id="clip0_750_5489">
<rect width="35" height="35" fill="white"/>
</clipPath>
</defs>
</svg>
