<svg width="76" height="76" viewBox="0 0 76 76" fill="none" xmlns="http://www.w3.org/2000/svg">
<g clip-path="url(#clip0_750_5482)">
<path d="M38 76C58.9868 76 76 58.9868 76 38C76 17.0132 58.9868 0 38 0C17.0132 0 0 17.0132 0 38C0 58.9868 17.0132 76 38 76Z" fill="#41667E"/>
<path d="M38 38.4006C36.5082 38.3857 35.291 39.5732 35.2762 41.065C35.2687 41.8518 35.6027 42.6014 36.1965 43.1209V45.6369C36.1965 46.6389 37.0055 47.4478 38.0074 47.4478C39.0094 47.4478 39.8184 46.6389 39.8184 45.6369V43.1209C40.9391 42.1412 41.0504 40.4342 40.0707 39.3135C39.5363 38.7271 38.7867 38.3932 38 38.4006ZM47.0473 31.1643V27.5424C47.0473 22.5475 42.9949 18.4951 38 18.4951C33.0051 18.4951 28.9527 22.5475 28.9527 27.5424V31.1643C25.9543 31.1643 23.5273 33.5912 23.5273 36.5896V49.2514C23.5273 52.2498 25.9543 54.6768 28.9527 54.6768H47.0473C50.0457 54.6768 52.4727 52.2498 52.4727 49.2514V36.5896C52.4727 33.5912 50.0457 31.1643 47.0473 31.1643ZM32.5746 27.5424C32.5746 24.5439 35.0016 22.117 38 22.117C40.9984 22.117 43.4254 24.5439 43.4254 27.5424V31.1643H32.5746V27.5424ZM48.8582 49.2514C48.8582 50.2533 48.0492 51.0623 47.0473 51.0623H28.9527C27.9508 51.0623 27.1418 50.2533 27.1418 49.2514V36.5896C27.1418 35.5877 27.9508 34.7787 28.9527 34.7787H47.0473C48.0492 34.7787 48.8582 35.5877 48.8582 36.5896V49.2514Z" fill="white"/>
</g>
<defs>
<clipPath id="clip0_750_5482">
<rect width="76" height="76" fill="white"/>
</clipPath>
</defs>
</svg>
