<svg width="62" height="62" viewBox="0 0 62 62" fill="none" xmlns="http://www.w3.org/2000/svg">
<g clip-path="url(#clip0_749_11266)">
<path d="M31 62C48.1208 62 62 48.1208 62 31C62 13.8792 48.1208 0 31 0C13.8792 0 0 13.8792 0 31C0 48.1208 13.8792 62 31 62Z" fill="#76AE2B"/>
<path d="M30.9994 17.2559C26.2707 17.2559 20.5732 18.3699 15.8809 20.816C15.8809 26.1018 15.8143 39.2646 30.9994 48.2559C46.1846 39.2646 46.124 26.0957 46.124 20.816C41.4256 18.3699 35.7281 17.2559 30.9994 17.2559ZM30.4484 37.9387L23.8307 30.1705C24.2666 29.8496 26.1315 28.6447 27.4998 30.225L30.3697 33.6822L37.9926 25.7506H38.0047C38.3256 25.4539 38.9129 25.0785 39.585 25.6174L30.4484 37.9387Z" fill="white"/>
</g>
<defs>
<clipPath id="clip0_749_11266">
<rect width="62" height="62" fill="white"/>
</clipPath>
</defs>
</svg>
