<svg width="62" height="62" viewBox="0 0 62 62" fill="none" xmlns="http://www.w3.org/2000/svg">
<g clip-path="url(#clip0_750_5464)">
<path d="M45.4817 32.4199C38.2842 32.4199 32.4141 38.2799 32.4141 45.4875C32.4141 52.685 38.2741 58.5551 45.4817 58.5551C52.6892 58.5551 58.5493 52.6951 58.5493 45.4875C58.5493 38.2902 52.6791 32.4199 45.4817 32.4199Z" fill="white"/>
<path d="M35.8859 32.0727V4.98791C35.8859 4.15076 35.202 3.4668 34.3648 3.4668H13.5178V11.828C13.5178 12.7774 12.7522 13.5533 11.7925 13.5533H3.44141V45.0893C3.44141 45.9264 4.12537 46.6104 4.96251 46.6104H29.0152C28.9948 46.2429 28.9539 45.8753 28.9539 45.4977C28.9745 39.9541 31.7002 35.0742 35.8859 32.0727Z" fill="white"/>
<path d="M13.9353 6.88574L6.88086 13.9403V43.1384H25.6452C26.2169 38.1768 28.6364 33.6337 32.4343 30.377V6.88574H13.9353Z" fill="#A9F83E"/>
<path d="M45.4808 55.1041C40.1721 55.1041 35.8535 50.7857 35.8535 45.4769C35.8535 40.168 40.1719 35.8496 45.4808 35.8496C50.7897 35.8496 55.108 40.168 55.108 45.4769C55.108 50.7857 50.7895 55.1041 45.4808 55.1041Z" fill="#0EC5D2"/>
<path d="M28.8505 13.0229H19.0905C18.1411 13.0229 17.3652 12.2573 17.3652 11.2976C17.3652 10.3481 18.1308 9.57227 19.0905 9.57227H28.8505C29.7999 9.57227 30.5758 10.3379 30.5758 11.2976C30.5655 12.2571 29.7999 13.0229 28.8505 13.0229Z" fill="#0EC5D2"/>
<path d="M28.8513 22.1791H10.4851C9.53564 22.1791 8.75977 21.4135 8.75977 20.4538C8.75977 19.5044 9.52537 18.7285 10.4851 18.7285H28.8513C29.8007 18.7285 30.5766 19.4941 30.5766 20.4538C30.5663 21.4032 29.8007 22.1791 28.8513 22.1791Z" fill="#0EC5D2"/>
<path d="M28.8513 31.2553H10.4851C9.53564 31.2553 8.75977 30.4897 8.75977 29.53C8.75977 28.5703 9.52537 27.8047 10.4851 27.8047H28.8513C29.8007 27.8047 30.5766 28.5703 30.5766 29.53C30.5766 30.4897 29.8007 31.2553 28.8513 31.2553Z" fill="#0EC5D2"/>
<path d="M24.3592 40.3315H10.4851C9.53564 40.3315 8.75977 39.5659 8.75977 38.6062C8.75977 37.6567 9.52537 36.8809 10.4851 36.8809H24.3593C25.3088 36.8809 26.0846 37.6465 26.0846 38.6062C26.0744 39.5657 25.3088 40.3315 24.3592 40.3315Z" fill="#0EC5D2"/>
<path d="M57.3242 34.0124L60.5912 30.7658C61.265 30.092 61.2751 29.0099 60.6014 28.3258C59.9276 27.6519 58.8455 27.6418 58.1614 28.3155L54.6801 31.7764C52.4954 30.296 49.9431 29.3466 47.1866 29.071V26.7434H47.9217C48.8711 26.7434 49.647 25.9778 49.647 25.0181C49.647 24.0686 48.8814 23.2928 47.9217 23.2928H43.0008C42.0514 23.2928 41.2755 24.0584 41.2755 25.0181C41.2755 25.9675 42.0411 26.7434 43.0008 26.7434H43.736V29.0609C42.1842 29.2242 40.6936 29.6122 39.3051 30.1736V4.98784C39.3255 2.24157 37.0999 0.00585938 34.3536 0.00585938H13.1391C11.8222 0.00585938 10.5664 0.516264 9.62726 1.45559L1.44973 9.63296C0.510405 10.5721 0 11.8279 0 13.1448V45.0586C0 47.8049 2.23586 50.0406 4.98198 50.0406H29.637C31.6277 56.9317 37.9677 61.9954 45.4917 61.9954C54.5983 61.9954 61.9998 54.5837 61.9998 45.4873C61.9897 41.0361 60.2134 36.9933 57.3242 34.0124ZM10.0764 5.88626V10.0823H5.8804L10.0764 5.88626ZM4.98198 46.6002C4.14483 46.6002 3.46087 45.9163 3.46087 45.0791V13.5329H11.8221C12.7715 13.5329 13.5474 12.7673 13.5474 11.8076V3.4462H34.374C35.2112 3.4462 35.8951 4.13016 35.8951 4.96731V32.0624C31.7094 35.0638 28.9734 39.9438 28.9734 45.4771C28.9734 45.8548 29.0143 46.2223 29.0347 46.5898H4.98198V46.6002ZM45.4816 58.5551C38.2842 58.5551 32.414 52.6951 32.414 45.4875C32.414 38.29 38.2741 32.4199 45.4816 32.4199C52.6892 32.4199 58.5492 38.2799 58.5492 45.4875C58.5492 52.6848 52.6791 58.5551 45.4816 58.5551Z" fill="#0EC5D2"/>
<path d="M5.88086 10.0816H10.0769V5.88574L5.88086 10.0816Z" fill="#0EC5D2"/>
<path d="M45.4812 34.3486C44.5317 34.3486 43.7559 35.1142 43.7559 36.0739V45.497C43.7559 46.4464 44.5215 47.2223 45.4812 47.2223C46.4306 47.2223 47.2065 46.4567 47.2065 45.497V36.0739C47.1964 35.1144 46.4306 34.3486 45.4812 34.3486Z" fill="#2D4A9D"/>
</g>
<defs>
<clipPath id="clip0_750_5464">
<rect width="62" height="62" fill="white"/>
</clipPath>
</defs>
</svg>
