<svg width="76" height="76" viewBox="0 0 76 76" fill="none" xmlns="http://www.w3.org/2000/svg">
<g clip-path="url(#clip0_748_10872)">
<path d="M38 76C58.9868 76 76 58.9868 76 38C76 17.0132 58.9868 0 38 0C17.0132 0 0 17.0132 0 38C0 58.9868 17.0132 76 38 76Z" fill="#0A8A93"/>
<path d="M47.4543 45.0454C46.9096 45.1369 46.5423 45.6526 46.6338 46.1973C46.7253 46.7419 47.241 47.1093 47.7856 47.0178L47.4543 45.0454ZM45.8138 37.058C45.2616 37.058 44.8138 37.5057 44.8138 38.058C44.8138 38.6102 45.2616 39.058 45.8138 39.058V37.058ZM44.468 33.5375V34.5375C46.3674 34.5375 47.9067 32.9974 47.9067 31.0982H46.9067H45.9067C45.9067 31.8934 45.2623 32.5375 44.468 32.5375V33.5375ZM42.0294 31.0982H41.0294C41.0294 32.9974 42.5687 34.5375 44.468 34.5375V33.5375V32.5375C43.6738 32.5375 43.0294 31.8934 43.0294 31.0982H42.0294ZM44.468 28.6589V27.6589C42.5687 27.6589 41.0294 29.199 41.0294 31.0982H42.0294H43.0294C43.0294 30.3031 43.6738 29.6589 44.468 29.6589V28.6589ZM46.9067 31.0982H47.9067C47.9067 29.199 46.3674 27.6589 44.468 27.6589V28.6589V29.6589C45.2623 29.6589 45.9067 30.3031 45.9067 31.0982H46.9067ZM51.625 42.1146H50.625C50.625 42.8213 50.3983 43.4288 49.9385 43.9112C49.4698 44.403 48.6869 44.8384 47.4543 45.0454L47.62 46.0316L47.7856 47.0178C49.3261 46.759 50.5457 46.1729 51.3862 45.2911C52.2357 44.4 52.625 43.2819 52.625 42.1146H51.625ZM45.8138 38.058V39.058C47.2391 39.058 48.4864 39.4629 49.3505 40.0661C50.218 40.6717 50.625 41.4115 50.625 42.1146H51.625H52.625C52.625 40.5773 51.7311 39.2888 50.4954 38.4262C49.2563 37.5612 47.598 37.058 45.8138 37.058V38.058ZM37.4245 30.8348H36.4245C36.4245 32.5675 35.2593 33.6284 33.9672 33.6284V34.6284V35.6284C36.494 35.6284 38.4245 33.5374 38.4245 30.8348H37.4245ZM33.9672 34.6284V33.6284C32.6752 33.6284 31.51 32.5675 31.51 30.8348H30.51H29.51C29.51 33.5374 31.4405 35.6284 33.9672 35.6284V34.6284ZM30.51 30.8348H31.51C31.51 29.9692 31.8061 29.351 32.2198 28.9486C32.6396 28.5403 33.245 28.292 33.9672 28.292V27.292V26.292C32.7801 26.292 31.6568 26.7062 30.8254 27.5149C29.9877 28.3296 29.51 29.4827 29.51 30.8348H30.51ZM33.9672 27.292V28.292C34.6895 28.292 35.2949 28.5403 35.7147 28.9486C36.1284 29.351 36.4245 29.9692 36.4245 30.8348H37.4245H38.4245C38.4245 29.4827 37.9468 28.3296 37.1091 27.5149C36.2777 26.7062 35.1544 26.292 33.9672 26.292V27.292ZM42.9775 43.5785H41.9775C41.9775 44.2496 41.6135 44.9873 40.4149 45.6122C39.1831 46.2544 37.1657 46.7087 34.1762 46.7087V47.7087V48.7087C37.321 48.7087 39.7042 48.2383 41.3395 47.3857C43.0079 46.5158 43.9775 45.1884 43.9775 43.5785H42.9775ZM34.1762 47.7087V46.7087C31.1868 46.7087 29.1694 46.2544 27.9376 45.6122C26.739 44.9873 26.375 44.2496 26.375 43.5785H25.375H24.375C24.375 45.1884 25.3446 46.5158 27.013 47.3857C28.6483 48.2383 31.0315 48.7087 34.1762 48.7087V47.7087ZM25.375 43.5785H26.375C26.375 43.0543 26.866 42.2726 28.3776 41.5633C29.81 40.8911 31.859 40.4483 34.1762 40.4483V39.4483V38.4483C31.6327 38.4483 29.2811 38.93 27.528 39.7527C25.8542 40.5382 24.375 41.8216 24.375 43.5785H25.375ZM34.1762 39.4483V40.4483C36.4935 40.4483 38.5425 40.8911 39.9748 41.5633C41.4865 42.2726 41.9775 43.0543 41.9775 43.5785H42.9775H43.9775C43.9775 41.8216 42.4982 40.5382 40.8245 39.7527C39.0714 38.93 36.7198 38.4483 34.1762 38.4483V39.4483Z" fill="white"/>
</g>
<defs>
<clipPath id="clip0_748_10872">
<rect width="76" height="76" fill="white"/>
</clipPath>
</defs>
</svg>
