<svg width="35" height="35" viewBox="0 0 35 35" fill="none" xmlns="http://www.w3.org/2000/svg">
<g clip-path="url(#clip0_748_10877)">
<path d="M17.5 35C27.165 35 35 27.165 35 17.5C35 7.83502 27.165 0 17.5 0C7.83502 0 0 7.83502 0 17.5C0 27.165 7.83502 35 17.5 35Z" fill="#A1B4BF"/>
<path d="M24.088 21.8638C23.5434 21.9553 23.176 22.471 23.2675 23.0157C23.359 23.5603 23.8747 23.9277 24.4194 23.8362L24.088 21.8638ZM23.0152 16.3824C22.4629 16.3824 22.0152 16.8301 22.0152 17.3824C22.0152 17.9347 22.4629 18.3824 23.0152 18.3824V16.3824ZM22.0924 14.2827V15.2827C23.5684 15.2827 24.7646 14.0858 24.7646 12.61H23.7646H22.7646C22.7646 12.9818 22.4633 13.2827 22.0924 13.2827V14.2827ZM20.4202 12.61H19.4202C19.4202 14.0858 20.6163 15.2827 22.0924 15.2827V14.2827V13.2827C21.7214 13.2827 21.4202 12.9818 21.4202 12.61H20.4202ZM22.0924 10.9373V9.93734C20.6163 9.93734 19.4202 11.1342 19.4202 12.61H20.4202H21.4202C21.4202 12.2382 21.7214 11.9373 22.0924 11.9373V10.9373ZM23.7646 12.61H24.7646C24.7646 11.1342 23.5684 9.93734 22.0924 9.93734V10.9373V11.9373C22.4633 11.9373 22.7646 12.2382 22.7646 12.61H23.7646ZM27 20.1641H26C26 20.5763 25.8701 20.9126 25.6161 21.1792C25.3531 21.4551 24.8849 21.73 24.088 21.8638L24.2537 22.85L24.4194 23.8362C25.524 23.6506 26.429 23.225 27.0638 22.5591C27.7075 21.8838 28 21.0369 28 20.1641H27ZM23.0152 17.3824V18.3824C23.9362 18.3824 24.7269 18.6446 25.2605 19.0171C25.7974 19.3919 26 19.8131 26 20.1641H27H28C28 18.9788 27.3105 18.0091 26.4053 17.3771C25.4967 16.7429 24.295 16.3824 23.0152 16.3824V17.3824ZM17.2625 12.4294H16.2625C16.2625 13.4651 15.5838 14.0307 14.8918 14.0307V15.0307V16.0307C16.8184 16.0307 18.2625 14.435 18.2625 12.4294H17.2625ZM14.8918 15.0307V14.0307C14.1998 14.0307 13.5211 13.4651 13.5211 12.4294H12.5211H11.5211C11.5211 14.435 12.9652 16.0307 14.8918 16.0307V15.0307ZM12.5211 12.4294H13.5211C13.5211 11.9122 13.6957 11.5724 13.9127 11.3613C14.1359 11.1442 14.4696 11 14.8918 11V10V9C14.0048 9 13.1531 9.31013 12.5183 9.92756C11.8773 10.551 11.5211 11.4258 11.5211 12.4294H12.5211ZM14.8918 10V11C15.3141 11 15.6478 11.1442 15.871 11.3613C16.088 11.5724 16.2625 11.9122 16.2625 12.4294H17.2625H18.2625C18.2625 11.4258 17.9064 10.551 17.2654 9.92756C16.6306 9.31013 15.7789 9 14.8918 9V10ZM21.0703 21.1679H20.0703C20.0703 21.4806 19.9159 21.8937 19.1677 22.2838C18.3865 22.6911 17.0606 23 15.0351 23V24L15.0351 25C17.216 25 18.9076 24.6749 20.0924 24.0572C21.3103 23.4222 22.0703 22.4193 22.0703 21.1679H21.0703ZM15.0351 24V23C13.0096 23 11.6837 22.6911 10.9025 22.2838C10.1544 21.8937 10 21.4806 10 21.1679H9H8C8 22.4193 8.76001 23.4222 9.97789 24.0572C11.1627 24.6749 12.8543 25 15.0351 25L15.0351 24ZM9 21.1679H10C10 21.0022 10.1814 20.545 11.1925 20.0705C12.1242 19.6333 13.4817 19.3357 15.0351 19.3357V18.3357V17.3357C13.2554 17.3357 11.5954 17.6722 10.3428 18.26C9.16963 18.8105 8 19.7695 8 21.1679H9ZM15.0351 18.3357V19.3357C16.5886 19.3357 17.9461 19.6333 18.8778 20.0705C19.8889 20.545 20.0703 21.0022 20.0703 21.1679H21.0703H22.0703C22.0703 19.7695 20.9006 18.8105 19.7274 18.26C18.4749 17.6722 16.8148 17.3357 15.0351 17.3357V18.3357Z" fill="white"/>
</g>
<defs>
<clipPath id="clip0_748_10877">
<rect width="35" height="35" fill="white"/>
</clipPath>
</defs>
</svg>
