<svg width="36" height="36" viewBox="0 0 36 36" fill="none" xmlns="http://www.w3.org/2000/svg">
<path d="M18 0.734619C8.34 0.734619 0.5 8.57462 0.5 18.2346C0.5 27.8946 8.34 35.7346 18 35.7346C27.66 35.7346 35.5 27.8946 35.5 18.2346C35.5 8.57462 27.66 0.734619 18 0.734619ZM24.125 19.5471H15.0425L18.0525 22.5571C18.56 23.0646 18.56 23.9046 18.0525 24.4121C17.79 24.6746 17.4575 24.7971 17.125 24.7971C16.7925 24.7971 16.46 24.6746 16.1975 24.4121L10.9475 19.1621C10.44 18.6546 10.44 17.8146 10.9475 17.3071L16.1975 12.0571C16.705 11.5496 17.545 11.5496 18.0525 12.0571C18.56 12.5646 18.56 13.4046 18.0525 13.9121L15.0425 16.9221H24.125C24.8425 16.9221 25.4375 17.5171 25.4375 18.2346C25.4375 18.9521 24.8425 19.5471 24.125 19.5471Z" fill="url(#paint0_linear_1523_1848)"/>
<path d="M18 0.734619C8.34 0.734619 0.5 8.57462 0.5 18.2346C0.5 27.8946 8.34 35.7346 18 35.7346C27.66 35.7346 35.5 27.8946 35.5 18.2346C35.5 8.57462 27.66 0.734619 18 0.734619ZM24.125 19.5471H15.0425L18.0525 22.5571C18.56 23.0646 18.56 23.9046 18.0525 24.4121C17.79 24.6746 17.4575 24.7971 17.125 24.7971C16.7925 24.7971 16.46 24.6746 16.1975 24.4121L10.9475 19.1621C10.44 18.6546 10.44 17.8146 10.9475 17.3071L16.1975 12.0571C16.705 11.5496 17.545 11.5496 18.0525 12.0571C18.56 12.5646 18.56 13.4046 18.0525 13.9121L15.0425 16.9221H24.125C24.8425 16.9221 25.4375 17.5171 25.4375 18.2346C25.4375 18.9521 24.8425 19.5471 24.125 19.5471Z" fill="black" fill-opacity="0.2"/>
<defs>
<linearGradient id="paint0_linear_1523_1848" x1="0.501985" y1="18.2354" x2="35.5" y2="18.2354" gradientUnits="userSpaceOnUse">
<stop stop-color="#BFFD2B"/>
<stop offset="1" stop-color="#05BCE8"/>
</linearGradient>
</defs>
</svg>
