<svg width="64" height="64" viewBox="0 0 64 64" fill="none" xmlns="http://www.w3.org/2000/svg">
<path d="M6.40002 49.295C6.40002 41.624 12.8087 35.4055 25.9048 35.4055C39.0008 35.4055 45.4095 41.624 45.4095 49.295C45.4095 50.5153 44.5192 51.5046 43.4208 51.5046H8.38875C7.2904 51.5046 6.40002 50.5153 6.40002 49.295Z" fill="#0EC5D2"/>
<path d="M33.2191 19.8094C33.2191 23.849 29.9444 27.1237 25.9048 27.1237C21.8652 27.1237 18.5905 23.849 18.5905 19.8094C18.5905 15.7698 21.8652 12.4951 25.9048 12.4951C29.9444 12.4951 33.2191 15.7698 33.2191 19.8094Z" fill="#0EC5D2"/>
<path d="M51.2 36.4951C54.5796 39.0202 57.6 45.3777 57.6 49.295C57.6 50.5153 56.7096 51.5046 55.6113 51.5046H54.4M41.6 26.1452C43.7863 24.8805 45.2572 22.5167 45.2572 19.8094C45.2572 17.1021 43.7863 14.7383 41.6 13.4736M8.38875 51.5046H43.4208C44.5192 51.5046 45.4095 50.5153 45.4095 49.295C45.4095 41.624 39.0008 35.4055 25.9048 35.4055C12.8087 35.4055 6.40002 41.624 6.40002 49.295C6.40002 50.5153 7.2904 51.5046 8.38875 51.5046ZM33.2191 19.8094C33.2191 23.849 29.9444 27.1237 25.9048 27.1237C21.8652 27.1237 18.5905 23.849 18.5905 19.8094C18.5905 15.7698 21.8652 12.4951 25.9048 12.4951C29.9444 12.4951 33.2191 15.7698 33.2191 19.8094Z" stroke="#0EC5D2" stroke-width="2" stroke-linecap="round"/>
</svg>
