<svg width="76" height="76" viewBox="0 0 76 76" fill="none" xmlns="http://www.w3.org/2000/svg">
<g clip-path="url(#clip0_748_10844)">
<path d="M38 76C58.9868 76 76 58.9868 76 38C76 17.0132 58.9868 0 38 0C17.0132 0 0 17.0132 0 38C0 58.9868 17.0132 76 38 76Z" fill="#0A8A93"/>
<path d="M41.7812 37.5L38.5 34.2187M38.5 34.2187L35.2188 30.9375M38.5 34.2187L35.2188 37.5M38.5 34.2187L41.7812 30.9375M42.0666 43.7772L38.5 50.625L35.2188 43.7772H28.6562C26.8441 43.7772 25.375 42.3081 25.375 40.4959V27.6563C25.375 25.8441 26.8441 24.375 28.6562 24.375H48.3438C50.1559 24.375 51.625 25.8441 51.625 27.6562V40.4959C51.625 42.3081 50.1559 43.7772 48.3438 43.7772H42.0666Z" stroke="white" stroke-width="2" stroke-linecap="round" stroke-linejoin="round"/>
</g>
<defs>
<clipPath id="clip0_748_10844">
<rect width="76" height="76" fill="white"/>
</clipPath>
</defs>
</svg>
