<svg width="35" height="35" viewBox="0 0 35 35" fill="none" xmlns="http://www.w3.org/2000/svg">
<g clip-path="url(#clip0_748_10849)">
<path d="M17.5 35C27.165 35 35 27.165 35 17.5C35 7.83502 27.165 0 17.5 0C7.83502 0 0 7.83502 0 17.5C0 27.165 7.83502 35 17.5 35Z" fill="#A1B4BF"/>
<path d="M19.875 17L18 15.125M18 15.125L16.125 13.25M18 15.125L16.125 17M18 15.125L19.875 13.25M20.038 20.587L18 24.5L16.125 20.587H12.375C11.3395 20.587 10.5 19.7475 10.5 18.712V11.375C10.5 10.3395 11.3395 9.5 12.375 9.5H23.625C24.6605 9.5 25.5 10.3395 25.5 11.375V18.712C25.5 19.7475 24.6605 20.587 23.625 20.587H20.038Z" stroke="white" stroke-width="2" stroke-linecap="round" stroke-linejoin="round"/>
</g>
<defs>
<clipPath id="clip0_748_10849">
<rect width="35" height="35" fill="white"/>
</clipPath>
</defs>
</svg>
