<svg width="105" height="36" viewBox="0 0 105 36" fill="none" xmlns="http://www.w3.org/2000/svg">
<rect x="0.886823" y="1.48881" width="102.804" height="33.3419" rx="4.86236" stroke="white" stroke-width="1.38925"/>
<path d="M40.197 12.6598C39.8296 12.6598 39.5466 12.5409 39.3477 12.3032C39.1835 12.1001 39.1014 11.8429 39.1014 11.5317V8.70507L39.5357 8.47816V11.5188C39.5357 12.0115 39.7735 12.2578 40.2489 12.2578H40.4758V12.6598H40.197ZM41.4288 9.02923C41.2516 9.02923 41.163 8.93846 41.163 8.75693C41.163 8.58405 41.2516 8.49761 41.4288 8.49761C41.5973 8.49761 41.6816 8.58405 41.6816 8.75693C41.6816 8.93846 41.5973 9.02923 41.4288 9.02923ZM42.4337 12.2578H42.6606V12.6598H42.3818C41.9928 12.6598 41.7011 12.528 41.5066 12.2643C41.3034 12.528 41.0095 12.6598 40.6249 12.6598H40.3461V12.2578H40.573C41.0484 12.2578 41.2861 12.0115 41.2861 11.5188V10.1119L41.7205 9.885V11.5188C41.7205 12.0115 41.9582 12.2578 42.4337 12.2578ZM44.0344 9.04868C43.8572 9.04868 43.7686 8.95791 43.7686 8.77638C43.7686 8.6035 43.8572 8.51706 44.0344 8.51706C44.203 8.51706 44.2873 8.6035 44.2873 8.77638C44.2873 8.95791 44.203 9.04868 44.0344 9.04868ZM44.7735 9.04868C44.5963 9.04868 44.5077 8.95791 44.5077 8.77638C44.5077 8.6035 44.5963 8.51706 44.7735 8.51706C44.9421 8.51706 45.0264 8.6035 45.0264 8.77638C45.0264 8.95791 44.9421 9.04868 44.7735 9.04868ZM45.0782 12.2578H46.2646V12.6598H44.7995C44.6525 12.6598 44.5185 12.6447 44.3975 12.6144C44.2765 12.6447 44.1425 12.6598 43.9955 12.6598H42.5304V12.2578H43.7233C43.3818 11.9423 43.2111 11.5685 43.2111 11.1362C43.2111 10.717 43.3278 10.3842 43.5612 10.1378C43.773 9.91742 44.0517 9.8072 44.3975 9.8072C44.7908 9.8072 45.0955 9.94983 45.3116 10.2351C45.4932 10.4728 45.5839 10.7732 45.5839 11.1362C45.5839 11.5728 45.4154 11.9466 45.0782 12.2578ZM44.4234 12.1995C44.6439 12.1217 44.8232 11.9834 44.9615 11.7846C45.1042 11.5814 45.1755 11.3632 45.1755 11.1298C45.1755 10.8445 45.1042 10.6198 44.9615 10.4555C44.8232 10.287 44.6352 10.2027 44.3975 10.2027C44.1598 10.2027 43.9718 10.287 43.8335 10.4555C43.6952 10.6198 43.626 10.8423 43.626 11.1233C43.626 11.361 43.6952 11.5814 43.8335 11.7846C43.9718 11.9834 44.1511 12.1217 44.3716 12.1995L44.3975 12.206L44.4105 12.1995H44.4234ZM48.2204 12.2578H48.4473V12.6598H48.1685C47.7795 12.6598 47.4878 12.528 47.2933 12.2643C47.0902 12.528 46.7962 12.6598 46.4116 12.6598H46.1328V12.2578H46.3597C46.8351 12.2578 47.0729 12.0115 47.0729 11.5188V10.1119L47.5072 9.885V11.5188C47.5072 12.0115 47.7449 12.2578 48.2204 12.2578ZM46.7487 13.3405C46.9216 13.3405 47.008 13.4291 47.008 13.6063C47.008 13.7835 46.9216 13.8721 46.7487 13.8721C46.5758 13.8721 46.4894 13.7835 46.4894 13.6063C46.4894 13.4291 46.5758 13.3405 46.7487 13.3405ZM47.4878 13.3405C47.6607 13.3405 47.7471 13.4291 47.7471 13.6063C47.7471 13.7835 47.6607 13.8721 47.4878 13.8721C47.3149 13.8721 47.2285 13.7835 47.2285 13.6063C47.2285 13.4291 47.3149 13.3405 47.4878 13.3405ZM50.4046 12.2578H50.6316V12.6598H50.3528C49.9638 12.6598 49.672 12.528 49.4776 12.2643C49.2744 12.528 48.9805 12.6598 48.5958 12.6598H48.3171V12.2578H48.544C49.0194 12.2578 49.2571 12.0115 49.2571 11.5188V10.1119L49.6915 9.885V11.5188C49.6915 12.0115 49.9292 12.2578 50.4046 12.2578ZM49.4062 13.3405C49.5748 13.3405 49.6591 13.427 49.6591 13.5998C49.6591 13.7814 49.5748 13.8721 49.4062 13.8721C49.229 13.8721 49.1404 13.7814 49.1404 13.5998C49.1404 13.427 49.229 13.3405 49.4062 13.3405ZM56.4658 12.2578V12.6598H56.1871C55.824 12.6598 55.5431 12.5431 55.3442 12.3097C55.1887 12.5431 54.938 12.6598 54.5922 12.6598H50.5013V12.2578H51.597V8.70507L51.9989 8.47816V11.2011C52.5046 10.2718 53.1746 9.8072 54.0087 9.8072C54.4928 9.8072 54.8775 9.9736 55.1627 10.3064C55.4048 10.5917 55.5258 10.9439 55.5258 11.3632V11.5317C55.5258 12.0158 55.7657 12.2578 56.2454 12.2578H56.4658ZM55.0914 11.3632C55.0914 11.0001 54.9769 10.7084 54.7478 10.4879C54.5533 10.2978 54.3091 10.2027 54.0152 10.2027C53.5095 10.2027 53.06 10.4469 52.6667 10.9353C52.3685 11.3027 52.1481 11.7435 52.0054 12.2578H54.5468C54.7543 12.2578 54.8969 12.2103 54.9747 12.1152C55.0525 12.0158 55.0914 11.8364 55.0914 11.5771V11.3632ZM56.7277 9.02923C56.5505 9.02923 56.4619 8.93846 56.4619 8.75693C56.4619 8.58405 56.5505 8.49761 56.7277 8.49761C56.8963 8.49761 56.9805 8.58405 56.9805 8.75693C56.9805 8.93846 56.8963 9.02923 56.7277 9.02923ZM57.4668 9.02923C57.2896 9.02923 57.201 8.93846 57.201 8.75693C57.201 8.58405 57.2896 8.49761 57.4668 8.49761C57.6353 8.49761 57.7196 8.58405 57.7196 8.75693C57.7196 8.93846 57.6353 9.02923 57.4668 9.02923ZM56.3387 12.6598V12.2578H56.5656C57.041 12.2578 57.2788 12.0115 57.2788 11.5188V10.1119L57.7131 9.885V11.5317C57.7131 11.8948 57.6072 12.1779 57.3955 12.381C57.201 12.5669 56.9416 12.6598 56.6175 12.6598H56.3387ZM64.3858 12.2578H64.6127V12.6598H64.3339C64.0573 12.6598 63.826 12.5906 63.6402 12.4523C63.6056 12.9105 63.4219 13.2714 63.0891 13.535C62.7909 13.7727 62.4149 13.8916 61.9611 13.8916C61.3992 13.8916 60.967 13.6993 60.6644 13.3146C60.4267 13.0164 60.3079 12.6598 60.3079 12.2449C60.3079 11.8688 60.4029 11.5512 60.5931 11.2918L61.021 11.1946C60.8092 11.5058 60.7033 11.8472 60.7033 12.2189C60.7033 12.5993 60.8265 12.9105 61.0729 13.1525C61.3063 13.3816 61.6023 13.4961 61.9611 13.4961C62.376 13.4961 62.698 13.3708 62.9271 13.1201C63.1215 12.9126 63.2188 12.6425 63.2188 12.3097V8.70507L63.6467 8.47816V11.5252V11.5382C63.6467 12.018 63.893 12.2578 64.3858 12.2578ZM68.5585 12.2578H68.779V12.6598H68.5002C68.1069 12.6598 67.813 12.5236 67.6185 12.2514C67.4024 12.6101 67.0739 12.7895 66.633 12.7895C66.1879 12.7895 65.8594 12.6122 65.6476 12.2578C65.4488 12.5258 65.1527 12.6598 64.7594 12.6598H64.4806V12.2578H64.7075C65.183 12.2578 65.4207 12.0115 65.4207 11.5188V11.2983C65.4207 10.8013 65.5417 10.4209 65.7837 10.1573C65.9955 9.9239 66.2786 9.8072 66.633 9.8072C67.0393 9.8072 67.3483 9.95848 67.5601 10.261C67.746 10.5204 67.8389 10.8661 67.8389 11.2983V11.5188C67.8389 12.0115 68.0788 12.2578 68.5585 12.2578ZM66.633 12.3875C66.8707 12.3875 67.0588 12.2903 67.1971 12.0958C67.3354 11.8969 67.4045 11.629 67.4045 11.2918C67.4045 10.5657 67.1474 10.2027 66.633 10.2027C66.1144 10.2027 65.8551 10.5657 65.8551 11.2918C65.8551 12.0223 66.1144 12.3875 66.633 12.3875ZM68.6466 12.6598V12.2578H69.3727C70.3149 12.2578 71.0496 11.938 71.5769 11.2983C71.1923 10.5636 70.7276 10.1962 70.1831 10.1962C69.8114 10.1962 69.4483 10.3842 69.0939 10.7602V10.3323C69.4483 9.98225 69.8178 9.8072 70.2025 9.8072H70.2155C70.894 9.8072 71.4819 10.2653 71.9789 11.1816V11.4474C71.3479 12.2557 70.477 12.6598 69.3662 12.6598H68.6466ZM34.7365 17.7972H35.7552L37.9132 23.6598H36.6814C36.5764 23.3511 36.4468 22.9436 36.2924 22.4373H34.19C34.1036 22.7151 33.9708 23.1226 33.7918 23.6598H32.5785L34.7365 17.7972ZM35.2551 19.3809C35.0822 19.8687 34.8445 20.5541 34.542 21.437H35.9497C35.6595 20.5849 35.428 19.8996 35.2551 19.3809ZM39.4686 19.455L39.5797 19.8533C39.8391 19.5137 40.2033 19.3439 40.6726 19.3439C41.3333 19.3439 41.8488 19.5661 42.2193 20.0107C42.5342 20.3935 42.6916 20.8813 42.6916 21.474C42.6916 22.252 42.457 22.8509 41.9878 23.2708C41.6173 23.6042 41.1635 23.7709 40.6263 23.7709C40.4658 23.7709 40.296 23.737 40.1169 23.6691C39.9378 23.6011 39.8113 23.524 39.7372 23.4375V25.3084H38.5887V19.455H39.4686ZM39.7372 21.0943V22.1687C39.7372 22.3848 39.8113 22.57 39.9595 22.7244C40.1138 22.8787 40.2929 22.9559 40.4966 22.9559C40.7745 22.9559 41.006 22.8232 41.1913 22.5577C41.3765 22.2922 41.4691 21.9618 41.4691 21.5667C41.4691 21.1468 41.3857 20.8134 41.219 20.5664C41.0585 20.3132 40.8393 20.1867 40.5615 20.1867C40.3454 20.1867 40.1539 20.2793 39.9872 20.4645C39.8205 20.6436 39.7372 20.8535 39.7372 21.0943ZM44.5516 19.455L44.6628 19.8533C44.9221 19.5137 45.2864 19.3439 45.7556 19.3439C46.4163 19.3439 46.9319 19.5661 47.3023 20.0107C47.6172 20.3935 47.7747 20.8813 47.7747 21.474C47.7747 22.252 47.5401 22.8509 47.0708 23.2708C46.7003 23.6042 46.2465 23.7709 45.7093 23.7709C45.5488 23.7709 45.379 23.737 45.1999 23.6691C45.0209 23.6011 44.8943 23.524 44.8202 23.4375V25.3084H43.6718V19.455H44.5516ZM44.8202 21.0943V22.1687C44.8202 22.3848 44.8943 22.57 45.0425 22.7244C45.1969 22.8787 45.3759 22.9559 45.5797 22.9559C45.8575 22.9559 46.0891 22.8232 46.2743 22.5577C46.4595 22.2922 46.5521 21.9618 46.5521 21.5667C46.5521 21.1468 46.4688 20.8134 46.3021 20.5664C46.1415 20.3132 45.9224 20.1867 45.6445 20.1867C45.4284 20.1867 45.237 20.2793 45.0703 20.4645C44.9036 20.6436 44.8202 20.8535 44.8202 21.0943ZM54.7215 18.2788C54.6104 18.4455 54.4375 18.6955 54.2028 19.029C53.7089 18.8129 53.2674 18.7048 52.8784 18.7048C52.366 18.7048 52.1097 18.8962 52.1097 19.279C52.1097 19.4519 52.1684 19.5878 52.2857 19.6865C52.403 19.7853 52.6469 19.9057 53.0174 20.0477C53.6842 20.3071 54.1627 20.588 54.4529 20.8906C54.7493 21.1931 54.8975 21.5574 54.8975 21.9834C54.8975 22.5824 54.6721 23.0454 54.2214 23.3727C53.8509 23.6382 53.3909 23.7709 52.8414 23.7709C52.1931 23.7709 51.5015 23.5363 50.7668 23.067L51.304 22.3169C51.6621 22.5577 52.1221 22.6781 52.6839 22.6781C53.3199 22.6781 53.6379 22.4218 53.6379 21.9093C53.6379 21.5759 53.2952 21.2919 52.6098 21.0573C51.5046 20.6868 50.952 20.0941 50.952 19.279C50.952 18.7851 51.1372 18.393 51.5077 18.1028C51.8535 17.825 52.3135 17.686 52.8877 17.686C53.5422 17.686 54.1535 17.8836 54.7215 18.2788ZM58.5756 20.3904H57.3716V22.4743C57.3716 22.783 57.4734 22.9374 57.6772 22.9374C57.8624 22.9374 58.094 22.8571 58.3718 22.6966L58.7608 23.2893C58.3224 23.6351 57.8377 23.808 57.3067 23.808C56.5658 23.808 56.1953 23.4005 56.1953 22.5854V20.3904H55.6118V19.455H56.2046V18.7048C56.5133 18.5381 56.9054 18.3313 57.3808 18.0843V19.455H58.5756V20.3904ZM61.3512 19.3439C62.0428 19.3439 62.58 19.5878 62.9628 20.0755C63.2838 20.483 63.4444 20.9801 63.4444 21.5667C63.4444 22.252 63.2067 22.8077 62.7312 23.2338C62.3361 23.5919 61.8761 23.7709 61.3512 23.7709C60.74 23.7709 60.2275 23.5425 59.8138 23.0856C59.4433 22.6719 59.2581 22.1656 59.2581 21.5667C59.2581 20.8875 59.465 20.3379 59.8786 19.9181C60.2553 19.5353 60.7461 19.3439 61.3512 19.3439ZM61.3512 22.9003C61.9502 22.9003 62.2496 22.4558 62.2496 21.5667C62.2496 20.6405 61.9502 20.1774 61.3512 20.1774C60.7523 20.1774 60.4529 20.6405 60.4529 21.5667C60.4529 22.4558 60.7523 22.9003 61.3512 22.9003ZM65.4201 19.455L65.5312 19.8255C65.593 19.6958 65.7103 19.5847 65.8832 19.4921C66.0622 19.3933 66.2444 19.3439 66.4296 19.3439C66.9853 19.3439 67.399 19.6063 67.6706 20.1311L66.6889 20.6683C66.4852 20.4337 66.2691 20.3163 66.0406 20.3163C65.8307 20.3163 65.6763 20.4244 65.5775 20.6405V23.6598H64.4291V19.455H65.4201ZM71.9458 21.9371H69.0562C69.0809 22.2211 69.1951 22.4589 69.3989 22.6503C69.6088 22.8355 69.8558 22.9281 70.1398 22.9281C70.5412 22.9281 70.961 22.8046 71.3994 22.5577L71.6958 23.1782C71.2512 23.5733 70.6955 23.7709 70.0287 23.7709C69.3124 23.7709 68.7537 23.5672 68.3523 23.1597C67.9695 22.7768 67.7781 22.2489 67.7781 21.5759C67.7781 20.9153 67.9942 20.3688 68.4264 19.9366C68.8154 19.5414 69.3094 19.3439 69.9083 19.3439C70.5751 19.3439 71.0938 19.5692 71.4642 20.02C71.7853 20.4028 71.9458 20.8998 71.9458 21.5111V21.9371ZM68.9914 21.0758H70.7789C70.748 20.4707 70.4547 20.1682 69.899 20.1682C69.3618 20.1682 69.0593 20.4707 68.9914 21.0758Z" fill="white"/>
<path d="M90.5929 18.7134C90.5836 17.1192 91.3059 15.9177 92.7645 15.0317C91.9487 13.8629 90.7145 13.2201 89.0875 13.0962C87.547 12.9746 85.8616 13.9938 85.2445 13.9938C84.5923 13.9938 83.101 13.1383 81.9275 13.1383C79.5057 13.1757 76.9321 15.0691 76.9321 18.9215C76.9321 20.0599 77.1401 21.2357 77.5562 22.4465C78.1125 24.0408 80.1182 27.9469 82.2103 27.8838C83.3043 27.858 84.0781 27.1077 85.5016 27.1077C86.8832 27.1077 87.5985 27.8838 88.8187 27.8838C90.9295 27.8534 92.7435 24.3026 93.2718 22.7037C90.441 21.3689 90.5929 18.7952 90.5929 18.7134ZM88.1361 11.5838C89.3213 10.1766 89.2137 8.89556 89.1787 8.43506C88.1314 8.49584 86.9206 9.14802 86.231 9.94981C85.4713 10.81 85.0248 11.8736 85.1206 13.0728C86.252 13.1593 87.2852 12.5773 88.1361 11.5838Z" fill="white"/>
</svg>
