<svg width="98" height="36" viewBox="0 0 98 36" fill="none" xmlns="http://www.w3.org/2000/svg">
<rect x="1.48961" y="1.48881" width="95.6236" height="33.3419" rx="4.86236" stroke="white" stroke-width="1.38925"/>
<path d="M26.8048 12.6598C26.4374 12.6598 26.1543 12.5409 25.9555 12.3032C25.7912 12.1001 25.7091 11.8429 25.7091 11.5317V8.70507L26.1435 8.47816V11.5188C26.1435 12.0115 26.3812 12.2578 26.8566 12.2578H27.0836V12.6598H26.8048ZM28.0365 9.02923C27.8593 9.02923 27.7707 8.93846 27.7707 8.75693C27.7707 8.58405 27.8593 8.49761 28.0365 8.49761C28.2051 8.49761 28.2894 8.58405 28.2894 8.75693C28.2894 8.93846 28.2051 9.02923 28.0365 9.02923ZM29.0414 12.2578H29.2683V12.6598H28.9896C28.6006 12.6598 28.3088 12.528 28.1143 12.2643C27.9112 12.528 27.6173 12.6598 27.2326 12.6598H26.9538V12.2578H27.1808C27.6562 12.2578 27.8939 12.0115 27.8939 11.5188V10.1119L28.3283 9.885V11.5188C28.3283 12.0115 28.566 12.2578 29.0414 12.2578ZM30.6422 9.04868C30.465 9.04868 30.3764 8.95791 30.3764 8.77638C30.3764 8.6035 30.465 8.51706 30.6422 8.51706C30.8108 8.51706 30.895 8.6035 30.895 8.77638C30.895 8.95791 30.8108 9.04868 30.6422 9.04868ZM31.3813 9.04868C31.2041 9.04868 31.1155 8.95791 31.1155 8.77638C31.1155 8.6035 31.2041 8.51706 31.3813 8.51706C31.5498 8.51706 31.6341 8.6035 31.6341 8.77638C31.6341 8.95791 31.5498 9.04868 31.3813 9.04868ZM31.686 12.2578H32.8724V12.6598H31.4072C31.2603 12.6598 31.1263 12.6447 31.0053 12.6144C30.8842 12.6447 30.7502 12.6598 30.6033 12.6598H29.1381V12.2578H30.331C29.9896 11.9423 29.8188 11.5685 29.8188 11.1362C29.8188 10.717 29.9355 10.3842 30.1689 10.1378C30.3807 9.91742 30.6595 9.8072 31.0053 9.8072C31.3986 9.8072 31.7033 9.94983 31.9194 10.2351C32.1009 10.4728 32.1917 10.7732 32.1917 11.1362C32.1917 11.5728 32.0231 11.9466 31.686 12.2578ZM31.0312 12.1995C31.2516 12.1217 31.431 11.9834 31.5693 11.7846C31.7119 11.5814 31.7832 11.3632 31.7832 11.1298C31.7832 10.8445 31.7119 10.6198 31.5693 10.4555C31.431 10.287 31.243 10.2027 31.0053 10.2027C30.7675 10.2027 30.5795 10.287 30.4412 10.4555C30.3029 10.6198 30.2338 10.8423 30.2338 11.1233C30.2338 11.361 30.3029 11.5814 30.4412 11.7846C30.5795 11.9834 30.7589 12.1217 30.9793 12.1995L31.0053 12.206L31.0182 12.1995H31.0312ZM34.8281 12.2578H35.055V12.6598H34.7763C34.3873 12.6598 34.0955 12.528 33.901 12.2643C33.6979 12.528 33.404 12.6598 33.0193 12.6598H32.7406V12.2578H32.9675C33.4429 12.2578 33.6806 12.0115 33.6806 11.5188V10.1119L34.115 9.885V11.5188C34.115 12.0115 34.3527 12.2578 34.8281 12.2578ZM33.3565 13.3405C33.5293 13.3405 33.6158 13.4291 33.6158 13.6063C33.6158 13.7835 33.5293 13.8721 33.3565 13.8721C33.1836 13.8721 33.0971 13.7835 33.0971 13.6063C33.0971 13.4291 33.1836 13.3405 33.3565 13.3405ZM34.0955 13.3405C34.2684 13.3405 34.3549 13.4291 34.3549 13.6063C34.3549 13.7835 34.2684 13.8721 34.0955 13.8721C33.9227 13.8721 33.8362 13.7835 33.8362 13.6063C33.8362 13.4291 33.9227 13.3405 34.0955 13.3405ZM37.0124 12.2578H37.2393V12.6598H36.9605C36.5715 12.6598 36.2798 12.528 36.0853 12.2643C35.8822 12.528 35.5883 12.6598 35.2036 12.6598H34.9248V12.2578H35.1517C35.6272 12.2578 35.8649 12.0115 35.8649 11.5188V10.1119L36.2993 9.885V11.5188C36.2993 12.0115 36.537 12.2578 37.0124 12.2578ZM36.014 13.3405C36.1826 13.3405 36.2668 13.427 36.2668 13.5998C36.2668 13.7814 36.1826 13.8721 36.014 13.8721C35.8368 13.8721 35.7482 13.7814 35.7482 13.5998C35.7482 13.427 35.8368 13.3405 36.014 13.3405ZM43.0736 12.2578V12.6598H42.7948C42.4318 12.6598 42.1508 12.5431 41.952 12.3097C41.7964 12.5431 41.5457 12.6598 41.2 12.6598H37.1091V12.2578H38.2047V8.70507L38.6067 8.47816V11.2011C39.1124 10.2718 39.7823 9.8072 40.6165 9.8072C41.1005 9.8072 41.4852 9.9736 41.7705 10.3064C42.0125 10.5917 42.1335 10.9439 42.1335 11.3632V11.5317C42.1335 12.0158 42.3734 12.2578 42.8532 12.2578H43.0736ZM41.6992 11.3632C41.6992 11.0001 41.5846 10.7084 41.3556 10.4879C41.1611 10.2978 40.9169 10.2027 40.623 10.2027C40.1173 10.2027 39.6678 10.4469 39.2745 10.9353C38.9762 11.3027 38.7558 11.7435 38.6132 12.2578H41.1546C41.362 12.2578 41.5047 12.2103 41.5825 12.1152C41.6603 12.0158 41.6992 11.8364 41.6992 11.5771V11.3632ZM43.3354 9.02923C43.1582 9.02923 43.0696 8.93846 43.0696 8.75693C43.0696 8.58405 43.1582 8.49761 43.3354 8.49761C43.504 8.49761 43.5883 8.58405 43.5883 8.75693C43.5883 8.93846 43.504 9.02923 43.3354 9.02923ZM44.0745 9.02923C43.8973 9.02923 43.8087 8.93846 43.8087 8.75693C43.8087 8.58405 43.8973 8.49761 44.0745 8.49761C44.2431 8.49761 44.3274 8.58405 44.3274 8.75693C44.3274 8.93846 44.2431 9.02923 44.0745 9.02923ZM42.9465 12.6598V12.2578H43.1734C43.6488 12.2578 43.8865 12.0115 43.8865 11.5188V10.1119L44.3209 9.885V11.5317C44.3209 11.8948 44.215 12.1779 44.0032 12.381C43.8087 12.5669 43.5494 12.6598 43.2252 12.6598H42.9465ZM50.9935 12.2578H51.2204V12.6598H50.9416C50.665 12.6598 50.4338 12.5906 50.248 12.4523C50.2134 12.9105 50.0297 13.2714 49.6969 13.535C49.3987 13.7727 49.0226 13.8916 48.5688 13.8916C48.0069 13.8916 47.5747 13.6993 47.2722 13.3146C47.0345 13.0164 46.9156 12.6598 46.9156 12.2449C46.9156 11.8688 47.0107 11.5512 47.2009 11.2918L47.6288 11.1946C47.417 11.5058 47.3111 11.8472 47.3111 12.2189C47.3111 12.5993 47.4343 12.9105 47.6806 13.1525C47.914 13.3816 48.2101 13.4961 48.5688 13.4961C48.9837 13.4961 49.3057 13.3708 49.5348 13.1201C49.7293 12.9126 49.8265 12.6425 49.8265 12.3097V8.70507L50.2544 8.47816V11.5252V11.5382C50.2544 12.018 50.5008 12.2578 50.9935 12.2578ZM55.1663 12.2578H55.3867V12.6598H55.1079C54.7146 12.6598 54.4207 12.5236 54.2262 12.2514C54.0101 12.6101 53.6816 12.7895 53.2408 12.7895C52.7956 12.7895 52.4671 12.6122 52.2553 12.2578C52.0565 12.5258 51.7605 12.6598 51.3672 12.6598H51.0884V12.2578H51.3153C51.7907 12.2578 52.0284 12.0115 52.0284 11.5188V11.2983C52.0284 10.8013 52.1495 10.4209 52.3915 10.1573C52.6033 9.9239 52.8864 9.8072 53.2408 9.8072C53.6471 9.8072 53.9561 9.95848 54.1679 10.261C54.3537 10.5204 54.4467 10.8661 54.4467 11.2983V11.5188C54.4467 12.0115 54.6865 12.2578 55.1663 12.2578ZM53.2408 12.3875C53.4785 12.3875 53.6665 12.2903 53.8048 12.0958C53.9431 11.8969 54.0123 11.629 54.0123 11.2918C54.0123 10.5657 53.7551 10.2027 53.2408 10.2027C52.7221 10.2027 52.4628 10.5657 52.4628 11.2918C52.4628 12.0223 52.7221 12.3875 53.2408 12.3875ZM55.2543 12.6598V12.2578H55.9804C56.9226 12.2578 57.6574 11.938 58.1847 11.2983C57.8 10.5636 57.3354 10.1962 56.7908 10.1962C56.4191 10.1962 56.0561 10.3842 55.7017 10.7602V10.3323C56.0561 9.98225 56.4256 9.8072 56.8103 9.8072H56.8232C57.5018 9.8072 58.0896 10.2653 58.5867 11.1816V11.4474C57.9556 12.2557 57.0847 12.6598 55.9739 12.6598H55.2543ZM17.5585 23.1689C16.8361 23.5703 16.1353 23.7709 15.4561 23.7709C14.53 23.7709 13.8353 23.4097 13.3723 22.6873C13.0265 22.1563 12.8536 21.508 12.8536 20.7424C12.8536 19.8471 13.1129 19.1061 13.6316 18.5196C14.1194 17.9639 14.7399 17.686 15.4932 17.686C16.1847 17.686 16.7991 17.9361 17.3362 18.4362L16.8639 19.2049C16.4193 18.8839 15.9871 18.7233 15.5673 18.7233C15.1474 18.7233 14.7986 18.9178 14.5207 19.3068C14.249 19.6958 14.1132 20.1867 14.1132 20.7794C14.1132 21.4092 14.2892 21.9093 14.6411 22.2798C14.9313 22.5885 15.2832 22.7429 15.6969 22.7429C15.9563 22.7429 16.194 22.7028 16.4101 22.6225V21.4092H15.3635V20.3534H17.5585V23.1689ZM20.2464 19.3439C20.938 19.3439 21.4751 19.5878 21.8579 20.0755C22.179 20.483 22.3396 20.9801 22.3396 21.5667C22.3396 22.252 22.1018 22.8077 21.6264 23.2338C21.2312 23.5919 20.7712 23.7709 20.2464 23.7709C19.6352 23.7709 19.1227 23.5425 18.709 23.0856C18.3385 22.6719 18.1533 22.1656 18.1533 21.5667C18.1533 20.8875 18.3601 20.3379 18.7738 19.9181C19.1505 19.5353 19.6413 19.3439 20.2464 19.3439ZM20.2464 22.9003C20.8453 22.9003 21.1448 22.4558 21.1448 21.5667C21.1448 20.6405 20.8453 20.1774 20.2464 20.1774C19.6475 20.1774 19.348 20.6405 19.348 21.5667C19.348 22.4558 19.6475 22.9003 20.2464 22.9003ZM25.1395 19.3439C25.8311 19.3439 26.3682 19.5878 26.7511 20.0755C27.0721 20.483 27.2327 20.9801 27.2327 21.5667C27.2327 22.252 26.995 22.8077 26.5195 23.2338C26.1244 23.5919 25.6644 23.7709 25.1395 23.7709C24.5283 23.7709 24.0158 23.5425 23.6021 23.0856C23.2316 22.6719 23.0464 22.1656 23.0464 21.5667C23.0464 20.8875 23.2532 20.3379 23.6669 19.9181C24.0436 19.5353 24.5344 19.3439 25.1395 19.3439ZM25.1395 22.9003C25.7385 22.9003 26.0379 22.4558 26.0379 21.5667C26.0379 20.6405 25.7385 20.1774 25.1395 20.1774C24.5406 20.1774 24.2412 20.6405 24.2412 21.5667C24.2412 22.4558 24.5406 22.9003 25.1395 22.9003ZM30.8847 23.1504C30.6069 23.5641 30.2148 23.7709 29.7085 23.7709C29.0911 23.7709 28.6125 23.5517 28.2729 23.1134C27.9827 22.7429 27.8376 22.2736 27.8376 21.7056C27.8376 20.8967 28.0723 20.2731 28.5415 19.8347C28.8996 19.5075 29.3226 19.3439 29.8104 19.3439C30.1994 19.3439 30.5297 19.4396 30.8014 19.631C30.9804 19.7545 31.07 19.8471 31.07 19.9088L31.1626 19.455H32.061V23.2245C32.061 23.9346 31.885 24.481 31.533 24.8638C31.1873 25.2404 30.6933 25.4288 30.0512 25.4288C29.3843 25.4288 28.807 25.2065 28.3192 24.7619L28.6156 24.1692C28.9923 24.4162 29.4152 24.5396 29.8845 24.5396C30.5513 24.5396 30.8847 24.0766 30.8847 23.1504ZM30.8847 20.8813C30.86 20.6899 30.7643 20.5263 30.5976 20.3904C30.4371 20.2484 30.258 20.1774 30.0604 20.1774C29.7517 20.1774 29.5047 20.3009 29.3195 20.5479C29.1343 20.7949 29.0417 21.1283 29.0417 21.5481C29.0417 22.4681 29.3442 22.9281 29.9493 22.9281C30.2024 22.9281 30.4216 22.8324 30.6069 22.641C30.7921 22.4434 30.8847 22.2119 30.8847 21.9464V20.8813ZM34.4855 17.686V23.6598H33.3185V18.2973L34.4855 17.686ZM39.6323 21.9371H36.7427C36.7674 22.2211 36.8816 22.4589 37.0854 22.6503C37.2953 22.8355 37.5423 22.9281 37.8263 22.9281C38.2277 22.9281 38.6475 22.8046 39.0859 22.5577L39.3823 23.1782C38.9377 23.5733 38.382 23.7709 37.7152 23.7709C36.999 23.7709 36.4402 23.5672 36.0388 23.1597C35.656 22.7768 35.4646 22.2489 35.4646 21.5759C35.4646 20.9153 35.6807 20.3688 36.1129 19.9366C36.5019 19.5414 36.9959 19.3439 37.5948 19.3439C38.2616 19.3439 38.7803 19.5692 39.1507 20.02C39.4718 20.4028 39.6323 20.8998 39.6323 21.5111V21.9371ZM36.6779 21.0758H38.4654C38.4345 20.4707 38.1412 20.1682 37.5855 20.1682C37.0483 20.1682 36.7458 20.4707 36.6779 21.0758ZM42.9536 23.6598V17.8064C43.04 17.7879 43.2839 17.7632 43.6853 17.7323C44.0866 17.7015 44.3922 17.686 44.6022 17.686C46.0964 17.686 46.8435 18.2973 46.8435 19.5198C46.8435 20.2793 46.5841 20.835 46.0655 21.1869C45.7197 21.4277 45.3122 21.5481 44.843 21.5481C44.4725 21.5481 44.2471 21.5234 44.1669 21.474V23.6598H42.9536ZM44.1669 18.7233V20.4923C44.3274 20.5541 44.5281 20.5849 44.7689 20.5849C45.0158 20.5849 45.2103 20.4985 45.3523 20.3256C45.4944 20.1465 45.5654 19.9026 45.5654 19.5939C45.5654 18.9703 45.2906 18.6585 44.7411 18.6585C44.4262 18.6585 44.2348 18.6801 44.1669 18.7233ZM49.0111 17.686V23.6598H47.8441V18.2973L49.0111 17.686ZM53.6578 23.6598H52.7224L52.6298 23.2615C52.2222 23.6011 51.8086 23.7709 51.3887 23.7709C50.4564 23.7709 49.9902 23.3171 49.9902 22.4095C49.9902 21.9587 50.1847 21.6068 50.5737 21.3536C50.9688 21.0943 51.5523 20.9647 52.3241 20.9647H52.5186V20.9461C52.5186 20.6806 52.463 20.4985 52.3519 20.3997C52.2408 20.3009 52.0401 20.2515 51.7499 20.2515C51.3424 20.2515 50.9688 20.3812 50.6292 20.6405C50.5181 20.4367 50.4131 20.2361 50.3143 20.0385C50.6663 19.7668 50.9719 19.5847 51.2313 19.4921C51.4968 19.3933 51.8116 19.3439 52.1759 19.3439C53.1638 19.3439 53.6578 19.9613 53.6578 21.1962V23.6598ZM52.4816 21.6778H52.3426C51.9907 21.6778 51.7067 21.7395 51.4906 21.863C51.2745 21.9865 51.1664 22.1501 51.1664 22.3539C51.1664 22.7367 51.3331 22.9281 51.6665 22.9281C51.8703 22.9281 52.0494 22.8695 52.2037 22.7521C52.3581 22.6348 52.4507 22.4866 52.4816 22.3076V21.6778ZM58.7698 19.455C58.5228 20.1465 58.1832 21.0758 57.751 22.2428C57.4361 23.1134 57.1891 23.7895 57.0101 24.2711C56.7199 25.0429 56.3124 25.4288 55.7875 25.4288C55.38 25.4288 54.9602 25.2528 54.528 24.9009C54.6515 24.6909 54.7564 24.5057 54.8429 24.3452C55.0713 24.4933 55.272 24.5674 55.4449 24.5674C55.698 24.5674 55.9234 24.2649 56.121 23.6598H55.8987L54.4261 19.455H55.5838C55.6517 19.6588 55.7567 19.9767 55.8987 20.409L55.9543 20.5571C56.2198 21.3598 56.4112 21.9495 56.5285 22.3261L57.6028 19.455H58.7698Z" fill="white"/>
<mask id="mask0_364_491" style="mask-type:alpha" maskUnits="userSpaceOnUse" x="68" y="8" width="18" height="20">
<path d="M85.2818 17.0024C86.1998 17.5076 86.1998 18.812 85.2818 19.3172L70.5991 27.3967C69.7049 27.8887 68.6047 27.2502 68.6047 26.2393L68.6047 10.0802C68.6047 9.06931 69.7049 8.43081 70.5991 8.92284L85.2818 17.0024Z" fill="#C4C4C4"/>
</mask>
<g mask="url(#mask0_364_491)">
<path d="M69.064 27.2381L78.2226 18.028L69.2148 8.9696C68.8555 9.19998 68.6047 9.59771 68.6047 10.0803V26.2394C68.6047 26.6511 68.7872 27.0011 69.064 27.2381Z" fill="url(#paint0_linear_364_491)"/>
<path d="M85.2818 17.0024C86.1999 17.5076 86.1999 18.8121 85.2818 19.3173L81.5776 21.3556L78.2227 18.0279L81.4066 14.87L85.2818 17.0024Z" fill="url(#paint1_linear_364_491)"/>
<path d="M81.5776 21.3555L78.2226 18.0278L69.064 27.2379C69.4667 27.5828 70.0691 27.6883 70.5991 27.3967L81.5776 21.3555Z" fill="url(#paint2_linear_364_491)"/>
<path d="M69.2149 8.96951L78.2226 18.0279L81.4066 14.8699L70.5991 8.92284C70.1318 8.66571 69.6083 8.71733 69.2149 8.96951Z" fill="url(#paint3_linear_364_491)"/>
</g>
<defs>
<linearGradient id="paint0_linear_364_491" x1="74.8831" y1="14.4507" x2="68.6561" y2="20.7288" gradientUnits="userSpaceOnUse">
<stop stop-color="#00C3FF"/>
<stop offset="1" stop-color="#1BE2FA"/>
</linearGradient>
<linearGradient id="paint1_linear_364_491" x1="78.2227" y1="18.0279" x2="86.5047" y2="18.0279" gradientUnits="userSpaceOnUse">
<stop stop-color="#FFCE00"/>
<stop offset="1" stop-color="#FFEA00"/>
</linearGradient>
<linearGradient id="paint2_linear_364_491" x1="68.8719" y1="28.3622" x2="79.8887" y2="19.5298" gradientUnits="userSpaceOnUse">
<stop stop-color="#DE2453"/>
<stop offset="1" stop-color="#FE3944"/>
</linearGradient>
<linearGradient id="paint3_linear_364_491" x1="69.4063" y1="7.95849" x2="79.8906" y2="16.522" gradientUnits="userSpaceOnUse">
<stop stop-color="#11D574"/>
<stop offset="1" stop-color="#01F176"/>
</linearGradient>
</defs>
</svg>
