<svg width="74" height="74" viewBox="0 0 74 74" fill="none" xmlns="http://www.w3.org/2000/svg">
<rect width="74" height="74" rx="37" fill="white"/>
<path d="M50.459 34.1345H45.8832C42.1307 34.1345 39.0748 31.0787 39.0748 27.3262V22.7503C39.0748 21.8795 38.3623 21.167 37.4915 21.167H30.7782C25.9015 21.167 21.959 24.3337 21.959 29.9862V44.0145C21.959 49.667 25.9015 52.8337 30.7782 52.8337H43.2232C48.0998 52.8337 52.0423 49.667 52.0423 44.0145V35.7178C52.0423 34.847 51.3298 34.1345 50.459 34.1345Z" fill="#9CE7ED"/>
<path d="M43.0155 21.499C42.3664 20.8498 41.2422 21.2931 41.2422 22.1956V27.7215C41.2422 30.0331 43.2055 31.949 45.5964 31.949C47.1005 31.9648 49.1905 31.9648 50.9797 31.9648C51.8822 31.9648 52.3572 30.904 51.7239 30.2706C49.4439 27.9748 45.3589 23.8423 43.0155 21.499Z" fill="#9CE7ED"/>
</svg>
