<svg width="89" height="69" viewBox="0 0 89 69" fill="none" xmlns="http://www.w3.org/2000/svg">
<rect x="20" width="69" height="69" rx="34.5" fill="#EBF9F6"/>
<path d="M22.3333 5.58325V13.9583" stroke="#292D32" stroke-width="3.5" stroke-miterlimit="10" stroke-linecap="round" stroke-linejoin="round"/>
<path d="M44.6667 5.58325V13.9583" stroke="#292D32" stroke-width="3.5" stroke-miterlimit="10" stroke-linecap="round" stroke-linejoin="round"/>
<path d="M58.625 23.7291V38.0503C56.1404 36.0683 52.9858 34.8958 49.5521 34.8958C46.1183 34.8958 42.9079 36.0961 40.3954 38.134C37.0175 40.7861 34.8958 44.9458 34.8958 49.552C34.8958 52.2878 35.6775 54.912 37.0175 57.0895C38.0504 58.7925 39.3904 60.272 40.9816 61.4166H22.3333C12.5625 61.4166 8.375 55.8333 8.375 47.4583V23.7291C8.375 15.3541 12.5625 9.77075 22.3333 9.77075H44.6667C54.4375 9.77075 58.625 15.3541 58.625 23.7291Z" stroke="#292D32" stroke-width="3.5" stroke-miterlimit="10" stroke-linecap="round" stroke-linejoin="round"/>
<path d="M19.5417 30.7083H36.2917" stroke="#292D32" stroke-width="3.5" stroke-miterlimit="10" stroke-linecap="round" stroke-linejoin="round"/>
<path d="M19.5417 44.6667H26.8558" stroke="#292D32" stroke-width="3.5" stroke-miterlimit="10" stroke-linecap="round" stroke-linejoin="round"/>
<path d="M64.2083 49.552C64.2083 52.2878 63.4266 54.912 62.0866 57.0895C61.305 58.4295 60.3279 59.602 59.1833 60.5512C56.615 62.8403 53.265 64.2083 49.5521 64.2083C46.3416 64.2083 43.3825 63.1753 40.9816 61.4166C39.3904 60.272 38.0504 58.7925 37.0175 57.0895C35.6775 54.912 34.8958 52.2878 34.8958 49.552C34.8958 44.9458 37.0175 40.7861 40.3954 38.134C42.9079 36.0961 46.1183 34.8958 49.5521 34.8958C52.9858 34.8958 56.1404 36.0683 58.625 38.0503C62.0308 40.7303 64.2083 44.8899 64.2083 49.552Z" stroke="#292D32" stroke-width="3.5" stroke-miterlimit="10" stroke-linecap="round" stroke-linejoin="round"/>
<path d="M49.5521 56.5313C49.5521 52.6788 52.6788 49.5522 56.5313 49.5522C52.6788 49.5522 49.5521 46.4255 49.5521 42.573C49.5521 46.4255 46.4254 49.5522 42.5729 49.5522C46.4254 49.5522 49.5521 52.6788 49.5521 56.5313Z" stroke="#292D32" stroke-width="3.5" stroke-linecap="round" stroke-linejoin="round"/>
</svg>
