<svg width="16" height="16" viewBox="0 0 16 16" fill="none" xmlns="http://www.w3.org/2000/svg">
<path d="M12.9313 15.1068C13.9413 14.7172 14.7398 13.9202 15.1301 12.9119C15.3148 12.4344 15.4441 11.8895 15.4792 11.0924C15.4875 10.9057 15.494 10.7489 15.5 10.5917V5.26627C15.4958 5.15517 15.4912 5.03946 15.4852 4.90946C15.4501 4.11239 15.3208 3.56473 15.1361 3.0899C14.9454 2.58602 14.6516 2.1347 14.2674 1.75991C13.8915 1.37867 13.4366 1.0827 12.9373 0.895538C12.4589 0.711139 11.913 0.582059 11.1145 0.547023C10.31 0.50876 10.0546 0.5 8.01478 0.5C5.97491 0.5 5.71906 0.50876 4.91779 0.543796C4.1193 0.578831 3.57066 0.707911 3.09498 0.892311C2.59021 1.0827 2.13808 1.3759 1.76216 1.75991C1.3807 2.13517 1.08421 2.58925 0.896243 3.08713C0.711514 3.56473 0.582204 4.10963 0.547105 4.90669C0.508774 5.70976 0.5 5.96469 0.5 8.00138C0.5 10.0381 0.508774 10.293 0.543872 11.0928C0.578971 11.8899 0.708282 12.438 0.893472 12.9124C1.08421 13.4163 1.3807 13.8676 1.76216 14.2429C2.13808 14.6236 2.59298 14.9201 3.09221 15.1072C3.57066 15.2916 4.11653 15.4207 4.91502 15.4557C5.71629 15.4912 5.97167 15.5 8.01201 15.5C10.0523 15.5 10.3073 15.4912 11.109 15.4557C11.9075 15.4207 12.4557 15.2912 12.9313 15.1068ZM8.01755 14.1516C6.01232 14.1516 5.77171 14.1428 4.98199 14.1078C4.24815 14.0755 3.85191 13.9524 3.58775 13.8501C3.26216 13.7298 2.96567 13.5394 2.7246 13.2904C2.47521 13.047 2.28402 12.7543 2.16395 12.4288C2.06142 12.1651 1.93811 11.7664 1.90579 11.0371C1.87069 10.246 1.86191 10.0086 1.86191 8.00692C1.86191 6.00526 1.87069 5.76508 1.90579 4.97723C1.93811 4.2447 2.06142 3.84916 2.16395 3.58547C2.28448 3.26 2.47522 2.96404 2.72783 2.72386C2.97121 2.47492 3.26493 2.28453 3.59052 2.16421C3.85468 2.06187 4.25416 1.93878 4.98476 1.90651C5.77725 1.87147 6.01509 1.86272 8.01986 1.86272C10.0246 1.86272 10.2657 1.87147 11.0554 1.90651C11.7893 1.93878 12.1855 2.06187 12.4497 2.16421C12.7752 2.28453 13.0717 2.47492 13.3123 2.72386C13.5617 2.96727 13.7529 3.26 13.873 3.58547C13.9755 3.84916 14.0988 4.24747 14.1312 4.97723C14.1663 5.7683 14.175 6.00572 14.175 8.00692C14.175 10.0081 14.1663 10.2428 14.1312 11.0338C14.0988 11.7664 13.9755 12.1619 13.873 12.4256C13.6204 13.0793 13.1008 13.5979 12.4464 13.8496C12.1823 13.952 11.7833 14.0751 11.0522 14.1073C10.2597 14.1424 10.0223 14.1516 8.01755 14.1516Z" fill="url(#paint0_linear_991_315)"/>
<path d="M8.01494 4.14746C5.88362 4.14746 4.15456 5.87344 4.15456 8.00095C4.15456 10.1285 5.88362 11.8544 8.01494 11.8544C10.1462 11.8544 11.8748 10.1285 11.8748 8.00095C11.8748 5.87344 10.1458 4.14746 8.01494 4.14746ZM8.01494 10.5C6.63224 10.5 5.51093 9.38073 5.51093 8.00049C5.51093 6.62026 6.63224 5.50095 8.01494 5.50095C9.39763 5.50095 10.5189 6.62026 10.5189 8.00049C10.5189 9.38073 9.39763 10.5 8.01494 10.5Z" fill="url(#paint1_linear_991_315)"/>
<path d="M12.9277 3.99511C12.9277 3.49815 12.5241 3.0957 12.0263 3.0957C11.5284 3.0957 11.1252 3.49862 11.1252 3.99511C11.1252 4.49161 11.5289 4.89452 12.0263 4.89452C12.5236 4.89452 12.9277 4.49207 12.9277 3.99511Z" fill="url(#paint2_linear_991_315)"/>
<defs>
<linearGradient id="paint0_linear_991_315" x1="0.500851" y1="8.00034" x2="15.5" y2="8.00034" gradientUnits="userSpaceOnUse">
<stop stop-color="#BFFD2B"/>
<stop offset="0.07" stop-color="#B9FC30"/>
<stop offset="0.16" stop-color="#AAF83D"/>
<stop offset="0.26" stop-color="#90F253"/>
<stop offset="0.37" stop-color="#6BEA72"/>
<stop offset="0.43" stop-color="#62E77A"/>
<stop offset="0.4301" stop-color="#5EE57E"/>
<stop offset="0.53" stop-color="#4ADE91"/>
<stop offset="0.65" stop-color="#24D0B5"/>
<stop offset="0.7" stop-color="#13CAC5"/>
<stop offset="1" stop-color="#05BCE8"/>
</linearGradient>
<linearGradient id="paint1_linear_991_315" x1="0.500851" y1="8.00034" x2="15.5" y2="8.00034" gradientUnits="userSpaceOnUse">
<stop stop-color="#BFFD2B"/>
<stop offset="0.07" stop-color="#B9FC30"/>
<stop offset="0.16" stop-color="#AAF83D"/>
<stop offset="0.26" stop-color="#90F253"/>
<stop offset="0.37" stop-color="#6BEA72"/>
<stop offset="0.43" stop-color="#62E77A"/>
<stop offset="0.4301" stop-color="#5EE57E"/>
<stop offset="0.53" stop-color="#4ADE91"/>
<stop offset="0.65" stop-color="#24D0B5"/>
<stop offset="0.7" stop-color="#13CAC5"/>
<stop offset="1" stop-color="#05BCE8"/>
</linearGradient>
<linearGradient id="paint2_linear_991_315" x1="0.500851" y1="8.00034" x2="15.5" y2="8.00034" gradientUnits="userSpaceOnUse">
<stop stop-color="#BFFD2B"/>
<stop offset="0.07" stop-color="#B9FC30"/>
<stop offset="0.16" stop-color="#AAF83D"/>
<stop offset="0.26" stop-color="#90F253"/>
<stop offset="0.37" stop-color="#6BEA72"/>
<stop offset="0.43" stop-color="#62E77A"/>
<stop offset="0.4301" stop-color="#5EE57E"/>
<stop offset="0.53" stop-color="#4ADE91"/>
<stop offset="0.65" stop-color="#24D0B5"/>
<stop offset="0.7" stop-color="#13CAC5"/>
<stop offset="1" stop-color="#05BCE8"/>
</linearGradient>
</defs>
</svg>
