<svg width="14" height="14" viewBox="0 0 14 14" fill="none" xmlns="http://www.w3.org/2000/svg">
<g clip-path="url(#clip0_3115_80853)">
<path d="M8.42405 12.4025C8.19207 12.8982 8.03873 13.436 7.97998 14.0001L12.8892 12.9945C13.1212 12.499 13.2744 11.961 13.3333 11.397L8.42405 12.4025Z" fill="#1CA7C7"/>
<path d="M12.8894 9.98193C13.1214 9.4864 13.2747 8.94841 13.3335 8.38435L9.50938 9.16804V7.66151L12.8893 6.96941C13.1213 6.47388 13.2746 5.9359 13.3334 5.37183L9.50927 6.15486V0.736889C8.9233 1.05391 8.4029 1.4759 7.97987 1.97365V6.4682L6.45048 6.78143V0C5.86452 0.316908 5.34412 0.739006 4.92109 1.23677V7.09455L1.49907 7.79522C1.26709 8.29075 1.11363 8.82874 1.05477 9.3928L4.92109 8.60109V10.4983L0.777569 11.3467C0.545587 11.8423 0.392243 12.3802 0.333496 12.9443L4.67061 12.0562C5.02367 11.9854 5.32712 11.7843 5.52441 11.5075L6.31981 10.3713V10.371C6.40238 10.2535 6.45048 10.1117 6.45048 9.95909V8.28786L7.97987 7.97463V10.9877L12.8893 9.98171L12.8894 9.98193Z" fill="#1CA7C7"/>
</g>
<defs>
<clipPath id="clip0_3115_80853">
<rect width="13" height="14" fill="white" transform="translate(0.333496)"/>
</clipPath>
</defs>
</svg>
