<svg width="16" height="16" viewBox="0 0 16 16" fill="none" xmlns="http://www.w3.org/2000/svg">
<path d="M8.012 0.5C7.512 0.5 7.012 0.512 6.512 0.537C5.012 0.612 4.012 0.912 3.212 1.312C2.412 1.712 1.812 2.312 1.412 3.112C1.012 3.912 0.712 4.912 0.637 6.412C0.612 6.912 0.6 7.412 0.6 7.912V8.088C0.6 8.588 0.612 9.088 0.637 9.588C0.712 11.088 1.012 12.088 1.412 12.888C1.812 13.688 2.412 14.288 3.212 14.688C4.012 15.088 5.012 15.388 6.512 15.463C7.012 15.488 7.512 15.5 8.012 15.5C8.512 15.5 9.012 15.488 9.512 15.463C11.012 15.388 12.012 15.088 12.812 14.688C13.612 14.288 14.212 13.688 14.612 12.888C15.012 12.088 15.312 11.088 15.387 9.588C15.412 9.088 15.424 8.588 15.424 8.088V7.912C15.424 7.412 15.412 6.912 15.387 6.412C15.312 4.912 15.012 3.912 14.612 3.112C14.212 2.312 13.612 1.712 12.812 1.312C12.012 0.912 11.012 0.612 9.512 0.537C9.012 0.512 8.512 0.5 8.012 0.5ZM8.012 2.162C8.487 2.162 8.962 2.174 9.437 2.199C10.737 2.262 11.437 2.537 11.887 2.737C12.487 2.987 12.912 3.287 13.362 3.737C13.812 4.187 14.112 4.612 14.362 5.212C14.562 5.662 14.837 6.362 14.9 7.662C14.925 8.137 14.937 8.612 14.937 9.087C14.937 9.562 14.925 10.037 14.9 10.512C14.837 11.812 14.562 12.512 14.362 12.962C14.112 13.562 13.812 13.987 13.362 14.437C12.912 14.887 12.487 15.187 11.887 15.437C11.437 15.637 10.737 15.912 9.437 15.975C8.962 16 8.487 16.012 8.012 16.012C7.537 16.012 7.062 16 6.587 15.975C5.287 15.912 4.587 15.637 4.137 15.437C3.537 15.187 3.112 14.887 2.662 14.437C2.212 13.987 1.912 13.562 1.662 12.962C1.462 12.512 1.187 11.812 1.124 10.512C1.099 10.037 1.087 9.562 1.087 9.087C1.087 8.612 1.099 8.137 1.124 7.662C1.187 6.362 1.462 5.662 1.662 5.212C1.912 4.612 2.212 4.187 2.662 3.737C3.112 3.287 3.537 2.987 4.137 2.737C4.587 2.537 5.287 2.262 6.587 2.199C7.062 2.174 7.537 2.162 8.012 2.162Z" fill="url(#paint0_linear_snapchat)"/>
<path d="M8.012 4.162C6.362 4.162 5.012 5.512 5.012 7.162C5.012 8.812 6.362 10.162 8.012 10.162C9.662 10.162 11.012 8.812 11.012 7.162C11.012 5.512 9.662 4.162 8.012 4.162ZM8.012 8.662C7.187 8.662 6.512 7.987 6.512 7.162C6.512 6.337 7.187 5.662 8.012 5.662C8.837 5.662 9.512 6.337 9.512 7.162C9.512 7.987 8.837 8.662 8.012 8.662Z" fill="url(#paint1_linear_snapchat)"/>
<path d="M11.512 3.662C11.512 4.037 11.212 4.337 10.837 4.337C10.462 4.337 10.162 4.037 10.162 3.662C10.162 3.287 10.462 2.987 10.837 2.987C11.212 2.987 11.512 3.287 11.512 3.662Z" fill="url(#paint2_linear_snapchat)"/>
<defs>
<linearGradient id="paint0_linear_snapchat" x1="0.600851" y1="8.00034" x2="15.424" y2="8.00034" gradientUnits="userSpaceOnUse">
<stop stop-color="#BFFD2B"/>
<stop offset="0.07" stop-color="#B9FC30"/>
<stop offset="0.16" stop-color="#AAF83D"/>
<stop offset="0.26" stop-color="#90F253"/>
<stop offset="0.37" stop-color="#6BEA72"/>
<stop offset="0.43" stop-color="#62E77A"/>
<stop offset="0.4301" stop-color="#5EE57E"/>
<stop offset="0.53" stop-color="#4ADE91"/>
<stop offset="0.65" stop-color="#24D0B5"/>
<stop offset="0.7" stop-color="#13CAC5"/>
<stop offset="1" stop-color="#05BCE8"/>
</linearGradient>
<linearGradient id="paint1_linear_snapchat" x1="0.600851" y1="8.00034" x2="15.424" y2="8.00034" gradientUnits="userSpaceOnUse">
<stop stop-color="#BFFD2B"/>
<stop offset="0.07" stop-color="#B9FC30"/>
<stop offset="0.16" stop-color="#AAF83D"/>
<stop offset="0.26" stop-color="#90F253"/>
<stop offset="0.37" stop-color="#6BEA72"/>
<stop offset="0.43" stop-color="#62E77A"/>
<stop offset="0.4301" stop-color="#5EE57E"/>
<stop offset="0.53" stop-color="#4ADE91"/>
<stop offset="0.65" stop-color="#24D0B5"/>
<stop offset="0.7" stop-color="#13CAC5"/>
<stop offset="1" stop-color="#05BCE8"/>
</linearGradient>
<linearGradient id="paint2_linear_snapchat" x1="0.600851" y1="8.00034" x2="15.424" y2="8.00034" gradientUnits="userSpaceOnUse">
<stop stop-color="#BFFD2B"/>
<stop offset="0.07" stop-color="#B9FC30"/>
<stop offset="0.16" stop-color="#AAF83D"/>
<stop offset="0.26" stop-color="#90F253"/>
<stop offset="0.37" stop-color="#6BEA72"/>
<stop offset="0.43" stop-color="#62E77A"/>
<stop offset="0.4301" stop-color="#5EE57E"/>
<stop offset="0.53" stop-color="#4ADE91"/>
<stop offset="0.65" stop-color="#24D0B5"/>
<stop offset="0.7" stop-color="#13CAC5"/>
<stop offset="1" stop-color="#05BCE8"/>
</linearGradient>
</defs>
</svg>