<svg width="81" height="76" viewBox="0 0 81 76" fill="none" xmlns="http://www.w3.org/2000/svg">
<path d="M8.56691 47.3452C8.56693 48.5007 8.739 49.6556 9.14894 51.0288L9.26613 51.4194C11.0043 56.6051 15.7906 60.0883 21.1714 60.0884H69.9663L66.938 69.8237C66.0806 73.1341 63.0218 75.3804 59.6743 75.3804C59.0211 75.3798 58.37 75.2948 57.7378 75.1284L5.76418 61.0562C1.75467 59.9381 -0.635817 55.7423 0.412616 51.6948L8.56691 24.1753V47.3452ZM72.4292 0.619629C77.0612 0.619629 80.8325 4.43293 80.8325 9.11572V46.4956C80.8325 51.1786 77.0612 54.9917 72.4292 54.9917H22.0112C17.3802 54.9915 13.6089 51.1785 13.6089 46.4956V9.11572C13.609 4.43303 17.3802 0.619794 22.0112 0.619629H72.4292ZM22.0112 7.4165C21.084 7.41667 20.3316 8.1776 20.3316 9.11572V41.1909L29.6079 31.8149C31.9036 29.4911 35.6452 29.4911 37.9439 31.8149L42.0112 35.9175L54.4946 20.7681C55.6105 19.4155 57.244 18.6344 58.9849 18.6245C60.7359 18.6648 62.3663 19.3781 63.4927 20.7134L74.1099 33.2397V9.11572C74.1098 8.17754 73.3574 7.4165 72.4292 7.4165H22.0112ZM30.4155 10.814C34.1229 10.8142 37.1372 13.8627 37.1372 17.6108C37.1371 21.3588 34.1228 24.4065 30.4155 24.4067C26.7082 24.4067 23.693 21.3588 23.6929 17.6108C23.6929 13.8627 26.7079 10.814 30.4155 10.814Z" fill="#D9D9D9"/>
</svg>
