<svg width="24" height="24" viewBox="0 0 24 24" fill="none" xmlns="http://www.w3.org/2000/svg">
<path d="M17.472 14.382C17.352 14.382 16.874 14.143 16.51 13.971C16.146 13.799 14.581 13.029 14.253 12.894C13.925 12.759 13.688 12.691 13.451 13.055C13.214 13.419 12.615 14.143 12.414 14.382C12.213 14.621 12.012 14.649 11.648 14.477C11.284 14.305 10.126 13.938 8.734 12.703C7.654 11.744 6.918 10.548 6.717 10.184C6.516 9.82 6.695 9.633 6.867 9.461C7.021 9.307 7.213 9.064 7.385 8.863C7.557 8.662 7.625 8.525 7.76 8.286C7.895 8.047 7.827 7.846 7.741 7.674C7.655 7.502 6.918 5.937 6.626 5.209C6.334 4.481 6.042 4.577 5.823 4.568C5.604 4.559 5.367 4.559 5.13 4.559C4.893 4.559 4.493 4.645 4.165 5.009C3.837 5.373 3.003 6.143 3.003 7.708C3.003 9.273 4.201 10.784 4.373 11.023C4.545 11.262 6.918 14.758 10.437 16.15C11.272 16.493 11.925 16.696 12.434 16.84C13.269 17.111 14.032 17.075 14.641 16.989C15.322 16.894 16.51 16.178 16.802 15.398C17.094 14.618 17.094 13.956 17.008 13.82C16.922 13.684 16.685 13.598 16.321 13.426L17.472 14.382Z" fill="currentColor"/>
<path fill-rule="evenodd" clip-rule="evenodd" d="M12 2C6.477 2 2 6.477 2 12C2 13.89 2.525 15.66 3.438 17.168L2.546 20.2C2.49 20.382 2.518 20.578 2.622 20.736C2.726 20.894 2.894 20.994 3.08 21.008C3.266 21.022 3.446 20.948 3.568 20.808L6.832 17.562C8.34 18.475 10.11 19 12 19C17.523 19 22 14.523 22 12C22 6.477 17.523 2 12 2ZM4 12C4 7.582 7.582 4 12 4C16.418 4 20 7.582 20 12C20 16.418 16.418 20 12 20C10.337 20 8.793 19.515 7.498 18.685L4.685 21.498C4.515 21.668 4.332 21.793 4.168 21.832L5.168 18.502C4.485 17.207 4 15.663 4 12Z" fill="currentColor"/>
</svg>